<?xml version="1.0" standalone="no"?>
  <!DOCTYPE svg PUBLIC "-//W3C//DTD SVG 1.1//EN" "http://www.w3.org/Graphics/SVG/1.1/DTD/svg11.dtd" >
  <svg>
  <metadata>
  Created by font-carrier
  </metadata>
  <defs>
  <font id="NoahText-Light" horiz-adv-x="1291" vert-adv-y="1291" >
    <font-face
      
      font-family="Noah Text Light"
      
      font-weight="400"
      
      font-stretch="normal"
      
      units-per-em="1000"
      
      ascent="937"
      
      descent="-312"
      
    />
      <missing-glyph />

      

      
      <glyph glyph-name="uni21" unicode="&#x21;" d="M110 162L106 680L154 680L148 162L110 162M130-10Q115-10 104.50-1Q94 8 94 25Q94 42 104.50 51Q115 60 130 60Q144 60 154.50 51Q165 42 165 25Q165 8 154.50-1Q144-10 130-10Z"  horiz-adv-x="259" vert-adv-y="1000"  />

      
      <glyph glyph-name="uni22" unicode="&#x22;" d="M62 481L62 680L107 680L95 481L62 481M214 481L214 680L258 680L247 481L214 481Z"  horiz-adv-x="320" vert-adv-y="1000"  />

      
      <glyph glyph-name="uni23" unicode="&#x23;" d="M108 0L139 207L38 207L38 244L144 244L169 414L67 414L67 451L175 451L209 680L247 680L213 451L360 451L393 680L431 680L397 451L495 451L495 414L392 414L366 244L466 244L466 207L361 207L331 0L293 0L323 207L177 207L146 0L108 0M182 244L328 244L354 414L207 414L182 244Z"  horiz-adv-x="533" vert-adv-y="1000"  />

      
      <glyph glyph-name="uni24" unicode="&#x24;" d="M313 358Q410 320 459 278Q508 236 508 163Q508 91 453 43.50Q398-4 313-9L313-94L268-94L268-9Q152-1 60 71L86 103Q164 41 268 32L268 330Q224 349 199 361Q174 373 143 395Q112 417 97.50 445.50Q83 474 83 510Q83 578 135.50 621.50Q188 665 268 670L268 755L313 755L313 670Q400 664 477 612L457 577Q388 623 313 629L313 358M127 512Q127 487 137.50 466.50Q148 446 170 429.50Q192 413 213.50 402Q235 391 268 377L268 629Q208 625 167.50 595Q127 565 127 512M313 32Q379 36 421.50 71.50Q464 107 464 162Q464 216 427.50 247.50Q391 279 313 311L313 32Z"  horiz-adv-x="566" vert-adv-y="1000"  />

      
      <glyph glyph-name="uni25" unicode="&#x25;" d="M207 394Q136 394 98.50 439Q61 484 61 542Q61 600 98.50 645Q136 690 207 690Q277 690 315 645Q353 600 353 542Q353 484 315 439Q277 394 207 394M180 0L572 680L612 680L221 0L180 0M207 428Q257 428 286.50 461.50Q316 495 316 542Q316 589 287 622.50Q258 656 207 656Q156 656 127 622.50Q98 589 98 542Q98 495 127 461.50Q156 428 207 428M583-10Q512-10 474.50 35Q437 80 437 138Q437 196 474.50 241Q512 286 583 286Q653 286 691 241Q729 196 729 138Q729 80 691 35Q653-10 583-10M503 57.50Q503 57.50 517.50 40.75Q532 24 583 24Q634 24 663 57.50Q692 91 692 138Q692 185 663 218.50Q634 252 583 252Q532 252 503 218.50Q474 185 474 138Q474 91 503 57.50Z"  horiz-adv-x="790" vert-adv-y="1000"  />

      
      <glyph glyph-name="uni26" unicode="&#x26;" d="M260-10Q168-10 113.50 37.50Q59 85 59 156Q59 216 100.50 272.50Q142 329 216 368Q172 419 153 456.50Q134 494 134 535Q134 600 182 645Q230 690 306 690Q373 690 413.50 650Q454 610 454 553Q454 492 407.50 446.50Q361 401 279 358L470 160Q529 257 531 369L572 369Q570 237 499 129L617 0L565 0L475 98Q388-10 260-10M252 388Q328 427 369 464.50Q410 502 410 551Q410 593 380.50 621Q351 649 304 649Q247 649 212.50 616.50Q178 584 178 536Q178 501 194.50 469Q211 437 252 388M260 31Q367 31 447 128L243 338Q178 306 140.50 256.50Q103 207 103 158Q103 102 145.50 66.50Q188 31 260 31Z"  horiz-adv-x="637" vert-adv-y="1000"  />

      
      <glyph glyph-name="uni27" unicode="&#x27;" d="M62 481L62 680L107 680L95 481L62 481Z"  horiz-adv-x="169" vert-adv-y="1000"  />

      
      <glyph glyph-name="uni28" unicode="&#x28;" d="M240-192Q170-108 128.50 19.50Q87 147 87 286Q87 425 128.50 552.50Q170 680 240 764L268 739Q203 661 165.50 539.50Q128 418 128 286Q128 154 165.50 32.50Q203-89 268-167L240-192Z"  horiz-adv-x="310" vert-adv-y="1000"  />

      
      <glyph glyph-name="uni29" unicode="&#x29;" d="M70 764Q140 680 181.50 552.50Q223 425 223 286Q223 147 181.50 19.50Q140-108 70-192L42-167Q107-89 144.50 32.50Q182 154 182 286Q182 418 144.50 539.50Q107 661 42 739L70 764Z"  horiz-adv-x="310" vert-adv-y="1000"  />

      
      <glyph glyph-name="uni2a" unicode="&#x2a;" d="M104 389L77 409L166 521L36 559L47 591L174 547L172 680L205 680L203 547L330 591L341 559L211 521L300 409L273 389L189 504L104 389Z"  horiz-adv-x="377" vert-adv-y="1000"  />

      
      <glyph glyph-name="uni2b" unicode="&#x2b;" d="M244 157L244 322L79 322L79 359L244 359L244 525L284 525L284 359L448 359L448 322L284 322L284 157L244 157Z"  horiz-adv-x="526" vert-adv-y="1000"  />

      
      <glyph glyph-name="uni2c" unicode="&#x2c;" d="M123 60Q159 60 159 12Q159-51 104-108L89-94Q128-50 131-9Q129-10 123-10Q108-10 98-0.50Q88 9 88 25Q88 42 98 51Q108 60 123 60Z"  horiz-adv-x="246" vert-adv-y="1000"  />

      
      <glyph glyph-name="uni2d" unicode="&#x2d;" d="M81 220L81 257L337 257L337 220L81 220Z"  horiz-adv-x="418" vert-adv-y="1000"  />

      
      <glyph glyph-name="uni2e" unicode="&#x2e;" d="M122-10Q107-10 96.50-1Q86 8 86 25Q86 42 96.50 51Q107 60 122 60Q136 60 146.50 51Q157 42 157 25Q157 8 146.50-1Q136-10 122-10Z"  horiz-adv-x="243" vert-adv-y="1000"  />

      
      <glyph glyph-name="uni2f" unicode="&#x2f;" d="M86-10L42-10L305 690L348 690L86-10Z"  horiz-adv-x="390" vert-adv-y="1000"  />

      
      <glyph glyph-name="uni30" unicode="&#x30;" d="M295-10Q189-10 128 82Q67 174 67 331Q67 488 128 579.50Q189 671 295 671Q402 671 463 579.50Q524 488 524 331Q524 174 463 82Q402-10 295-10M160 112Q160 112 184.50 71.50Q209 31 295 31Q381 31 430.50 112Q480 193 480 331Q480 469 430.50 549.50Q381 630 295 630Q209 630 160 549.50Q111 469 111 331Q111 193 160 112Z"  horiz-adv-x="591" vert-adv-y="1000"  />

      
      <glyph glyph-name="uni31" unicode="&#x31;" d="M219 671L232 671L232 0L189 0L189 569Q189 591 190 602Q179 594 166 586L44 507L24 542L219 671Z"  horiz-adv-x="342" vert-adv-y="1000"  />

      
      <glyph glyph-name="uni32" unicode="&#x32;" d="M155 40L436 40L436 0L39 0L39 17L293 336Q337 390 354 424.50Q371 459 371 498Q371 557 335.50 593.50Q300 630 240 630Q148 630 86 541L53 567Q130 671 240 671Q320 671 367.50 623Q415 575 415 500Q415 452 395.50 412.50Q376 373 323 305L138 78Q123 58 108 40L155 40Z"  horiz-adv-x="480" vert-adv-y="1000"  />

      
      <glyph glyph-name="uni33" unicode="&#x33;" d="M237-10Q113-10 37 95L70 120Q138 31 237 31Q320 31 370.50 75Q421 119 421 188Q421 256 373 294.50Q325 333 253 333L161 333L161 374L248 374Q312 374 350 411.50Q388 449 388 499Q388 556 348 593Q308 630 243 630Q152 630 87 554L58 580Q132 671 245 671Q327 671 380 622.50Q433 574 433 502Q433 459 408 417.50Q383 376 331 356Q397 338 431.50 290Q466 242 466 186Q466 104 404.50 47Q343-10 237-10Z"  horiz-adv-x="525" vert-adv-y="1000"  />

      
      <glyph glyph-name="uni34" unicode="&#x34;" d="M414 191L497 191L497 151L414 151L414 0L372 0L372 151L25 151L25 163L402 671L414 671L414 191M373 191L373 514Q373 548 374 568L343 526L125 233L93 191L150 191L373 191Z"  horiz-adv-x="528" vert-adv-y="1000"  />

      
      <glyph glyph-name="uni35" unicode="&#x35;" d="M223 394Q323 394 386 342Q449 290 449 196Q449 106 388.50 48Q328-10 233-10Q108-10 38 85L69 112Q126 31 234 31Q310 31 357.50 77.50Q405 124 405 196Q405 277 351 316Q297 355 214 355Q148 355 90 335L82 343L122 661L426 661L426 621L158 621L128 383Q180 394 223 394Z"  horiz-adv-x="493" vert-adv-y="1000"  />

      
      <glyph glyph-name="uni36" unicode="&#x36;" d="M279 409Q366 409 423 354.50Q480 300 480 202Q480 109 423.50 49.50Q367-10 275-10Q179-10 122.50 57Q66 124 66 233L66 251Q66 436 147.50 546Q229 656 400 671L406 631Q277 621 200.50 543Q124 465 112 325Q166 409 279 409M274 31Q346 31 391 79Q436 127 436 202Q436 280 392 324.50Q348 369 273 369Q208 369 159.50 327.50Q111 286 111 205Q111 136 154 83.50Q197 31 274 31Z"  horiz-adv-x="530" vert-adv-y="1000"  />

      
      <glyph glyph-name="uni37" unicode="&#x37;" d="M25 661L417 661L417 649L149 0L103 0L339 569Q343 580 361 621L297 621L25 621L25 661Z"  horiz-adv-x="435" vert-adv-y="1000"  />

      
      <glyph glyph-name="uni38" unicode="&#x38;" d="M281-9Q180-9 119.50 42Q59 93 59 179Q59 251 101 296.50Q143 342 198 354Q148 367 115 405Q82 443 82 503Q82 579 137.50 625Q193 671 282 671Q371 671 425.50 625Q480 579 480 503Q480 445 448.50 407.50Q417 370 367 354Q421 342 462 296Q503 250 503 178Q503 92 443 41.50Q383-9 281-9M170 408.50Q170 408.50 192 391.25Q214 374 282 374Q350 374 393 409Q436 444 436 504Q436 560 393.50 595Q351 630 282 630Q212 630 169 595Q126 560 126 504Q126 443 170 408.50M281 33Q362 33 410 72Q458 111 458 179Q458 251 408.50 292Q359 333 280 333Q206 333 155 291.50Q104 250 104 179Q104 112 152.50 72.50Q201 33 281 33Z"  horiz-adv-x="562" vert-adv-y="1000"  />

      
      <glyph glyph-name="uni39" unicode="&#x39;" d="M262 671Q360 671 415.50 603Q471 535 471 422Q471 19 132-10L127 30Q399 50 425 338Q373 252 258 252Q171 252 114 306.50Q57 361 57 459Q57 552 113.50 611.50Q170 671 262 671M264 292Q329 292 378 334Q427 376 427 457Q427 525 383.50 577.50Q340 630 263 630Q191 630 146.50 582.50Q102 535 102 459Q102 381 146 336.50Q190 292 264 292Z"  horiz-adv-x="537" vert-adv-y="1000"  />

      
      <glyph glyph-name="uni3a" unicode="&#x3a;" d="M122 405Q107 405 96.50 414Q86 423 86 440Q86 457 96.50 466Q107 475 122 475Q136 475 146.50 466Q157 457 157 440Q157 423 146.50 414Q136 405 122 405M122-10Q107-10 96.50-1Q86 8 86 25Q86 42 96.50 51Q107 60 122 60Q136 60 146.50 51Q157 42 157 25Q157 8 146.50-1Q136-10 122-10Z"  horiz-adv-x="243" vert-adv-y="1000"  />

      
      <glyph glyph-name="uni3b" unicode="&#x3b;" d="M122 405Q108 405 97.50 414Q87 423 87 440Q87 457 97.50 466Q108 475 122 475Q137 475 147.50 466Q158 457 158 440Q158 423 147.50 414Q137 405 122 405M123 60Q159 60 159 15Q159-51 104-108L89-93Q128-51 131-9Q129-10 123-10Q108-10 97.50-0.50Q87 9 87 25Q87 42 97.50 51Q108 60 123 60Z"  horiz-adv-x="246" vert-adv-y="1000"  />

      
      <glyph glyph-name="uni3c" unicode="&#x3c;" d="M373 173L50 335L50 365L373 527L373 483L101 350L373 217L373 173Z"  horiz-adv-x="442" vert-adv-y="1000"  />

      
      <glyph glyph-name="uni3d" unicode="&#x3d;" d="M84 415L84 452L429 452L429 415L84 415M84 228L84 265L429 265L429 228L84 228Z"  horiz-adv-x="513" vert-adv-y="1000"  />

      
      <glyph glyph-name="uni3e" unicode="&#x3e;" d="M69 173L69 217L341 350L69 483L69 527L392 365L392 335L69 173Z"  horiz-adv-x="442" vert-adv-y="1000"  />

      
      <glyph glyph-name="uni3f" unicode="&#x3f;" d="M185 162Q183 190 183 201Q183 245 196.50 281.50Q210 318 223 335.50Q236 353 266 387Q272 394 289.50 413Q307 432 313 438.50Q319 445 330 460.50Q341 476 345 486Q349 496 353 510.50Q357 525 357 541Q357 587 322 618.50Q287 650 229 650Q142 650 82 583L54 613Q127 690 231 690Q309 690 355 645.50Q401 601 401 543Q401 530 400 519Q399 508 394.50 496Q390 484 387.50 476Q385 468 376.50 456Q368 444 364.50 438Q361 432 349 418Q337 404 333 399Q329 394 313.50 377.50Q298 361 293 356Q268 327 257 312Q246 297 235.50 267.50Q225 238 225 202Q225 176 227 162L185 162M208-10Q193-10 182.50-1Q172 8 172 25Q172 42 182.50 51Q193 60 208 60Q222 60 232.50 51Q243 42 243 25Q243 8 232.50-1Q222-10 208-10Z"  horiz-adv-x="470" vert-adv-y="1000"  />

      
      <glyph glyph-name="uni40" unicode="&#x40;" d="M393-144Q254-144 160-48Q66 48 66 199Q66 379 181.50 506Q297 633 468 633Q532 633 588.50 613.50Q645 594 689.50 556Q734 518 760.50 457Q787 396 787 319Q787 216 746 141.50Q705 67 629 67Q562 67 547 131Q496 57 401 57Q336 57 301 99.50Q266 142 266 206Q266 300 324 365Q382 430 476 430Q540 430 598 393L579 179Q572 101 632 101Q689 101 719.50 165.50Q750 230 750 316Q750 453 668.50 525Q587 597 467 597Q314 597 208.50 480.50Q103 364 103 201Q103 63 186-23Q269-109 394-109Q467-109 546-75L560-107Q476-144 393-144M404 90Q456 90 491.50 120.50Q527 151 544 204L559 373Q520 396 471 396Q400 396 352.50 341Q305 286 305 208Q305 157 332 123.50Q359 90 404 90Z"  horiz-adv-x="853" vert-adv-y="1000"  />

      
      <glyph glyph-name="uni41" unicode="&#x41;" d="M346 685L659 2L659 0L612 0L532 175L145 175L65 0L19 0L19 2L331 685L346 685M339 605Q331 584 315 548L164 216L513 216L362 548Q355 562 339 605Z"  horiz-adv-x="677" vert-adv-y="1000"  />

      
      <glyph glyph-name="uni42" unicode="&#x42;" d="M439 357Q495 339 530.50 291Q566 243 566 185Q566 106 509.50 53Q453 0 369 0L110 0L110 680L351 680Q428 680 481.50 631Q535 582 535 508Q535 401 439 357M154 639L154 374L350 374Q414 374 452.50 409Q491 444 491 508Q491 565 450.50 602Q410 639 349 639L154 639M367 41Q433 41 477.50 82Q522 123 522 187Q522 249 478 291Q434 333 370 333L154 333L154 41L367 41Z"  horiz-adv-x="625" vert-adv-y="1000"  />

      
      <glyph glyph-name="uni43" unicode="&#x43;" d="M409-11Q259-11 162.50 91Q66 193 66 341Q66 489 162.50 590Q259 691 409 691Q561 691 668 579L641 551Q547 650 409 650Q279 650 194.50 561.50Q110 473 110 341Q110 210 194.50 120Q279 30 409 30Q552 30 649 149L680 123Q573-11 409-11Z"  horiz-adv-x="713" vert-adv-y="1000"  />

      
      <glyph glyph-name="uni44" unicode="&#x44;" d="M110 0L110 680L316 680Q470 680 566.50 584Q663 488 663 339Q663 190 567.50 95Q472 0 317 0L110 0M154 41L317 41Q452 41 535.50 125Q619 209 619 339Q619 469 535 554Q451 639 316 639L154 639L154 41Z"  horiz-adv-x="729" vert-adv-y="1000"  />

      
      <glyph glyph-name="uni45" unicode="&#x45;" d="M154 41L513 41L513 0L110 0L110 680L504 680L504 639L154 639L154 371L459 371L459 330L154 330L154 41Z"  horiz-adv-x="560" vert-adv-y="1000"  />

      
      <glyph glyph-name="uni46" unicode="&#x46;" d="M110 0L110 680L511 680L511 639L154 639L154 355L474 355L474 314L154 314L154 0L110 0Z"  horiz-adv-x="549" vert-adv-y="1000"  />

      
      <glyph glyph-name="uni47" unicode="&#x47;" d="M405 352L683 352L683 120Q590-11 413-11Q260-11 163 90Q66 191 66 341Q66 489 161.50 590Q257 691 411 691Q564 691 667 571L637 544Q543 650 411 650Q278 650 194 562Q110 474 110 341Q110 206 195 118Q280 30 415 30Q561 30 641 133L641 311L405 311L405 352Z"  horiz-adv-x="743" vert-adv-y="1000"  />

      
      <glyph glyph-name="uni48" unicode="&#x48;" d="M110 0L110 680L154 680L154 364L596 364L596 680L640 680L640 0L596 0L596 323L154 323L154 0L110 0Z"  horiz-adv-x="750" vert-adv-y="1000"  />

      
      <glyph glyph-name="uni49" unicode="&#x49;" d="M110 0L110 680L154 680L154 0L110 0Z"  horiz-adv-x="264" vert-adv-y="1000"  />

      
      <glyph glyph-name="uni4a" unicode="&#x4a;" d="M214-11Q114-11 29 54L53 89Q126 30 214 30Q289 30 330.50 75.50Q372 121 372 205L372 680L416 680L416 204Q416 101 363.50 45Q311-11 214-11Z"  horiz-adv-x="517" vert-adv-y="1000"  />

      
      <glyph glyph-name="uni4b" unicode="&#x4b;" d="M198 343L563 2L563 0L506 0L155 327L154 327L154 0L110 0L110 680L154 680L154 357L155 357L486 680L541 680L541 678L198 343Z"  horiz-adv-x="578" vert-adv-y="1000"  />

      
      <glyph glyph-name="uni4c" unicode="&#x4c;" d="M110 0L110 680L154 680L154 41L488 41L488 0L110 0Z"  horiz-adv-x="522" vert-adv-y="1000"  />

      
      <glyph glyph-name="uni4d" unicode="&#x4d;" d="M705 685L801 0L757 0L684 528Q681 548 677 583Q674 579 663.50 561Q653 543 648 534L439 185L429 185L217 539Q214 544 205 559.50Q196 575 191 583Q190 574 187.50 557Q185 540 184 532L111 0L67 0L163 685L177 685L397 319Q403 307 434 255Q441 267 454 289Q467 311 472 320L691 685L705 685Z"  horiz-adv-x="868" vert-adv-y="1000"  />

      
      <glyph glyph-name="uni4e" unicode="&#x4e;" d="M622 680L666 680L666-5L647-5L191 547Q165 577 153 592Q154 574 154 539L154 0L110 0L110 685L129 685L584 135Q610 105 623 89Q622 110 622 148L622 680Z"  horiz-adv-x="776" vert-adv-y="1000"  />

      
      <glyph glyph-name="uni4f" unicode="&#x4f;" d="M408-11Q260-11 163 91Q66 193 66 340Q66 491 162.50 591Q259 691 408 691Q558 691 654 591Q750 491 750 340Q750 192 653.50 90.50Q557-11 408-11M408 30Q538 30 622 119.50Q706 209 706 340Q706 474 622.50 562Q539 650 408 650Q277 650 193.50 562Q110 474 110 340Q110 209 194.50 119.50Q279 30 408 30Z"  horiz-adv-x="816" vert-adv-y="1000"  />

      
      <glyph glyph-name="uni50" unicode="&#x50;" d="M110 0L110 680L359 680Q455 680 510.50 617Q566 554 566 476Q566 398 511 338.50Q456 279 355 279L154 279L154 0L110 0M154 320L355 320Q432 320 477 365.50Q522 411 522 477Q522 544 476 591.50Q430 639 359 639L154 639L154 320Z"  horiz-adv-x="604" vert-adv-y="1000"  />

      
      <glyph glyph-name="uni51" unicode="&#x51;" d="M750 340Q750 248 710.50 170.50Q671 93 601 46L746-56L722-90L561 23Q491-11 408-11Q260-11 163 91Q66 193 66 340Q66 491 162.50 591Q259 691 408 691Q558 691 654 591Q750 491 750 340M110 340Q110 209 194 119.50Q278 30 408 30Q538 30 622 119Q706 208 706 340Q706 474 622.50 562Q539 650 408 650Q277 650 193.50 562Q110 474 110 340Z"  horiz-adv-x="816" vert-adv-y="1000"  />

      
      <glyph glyph-name="uni52" unicode="&#x52;" d="M390 288L593 2L593 0L543 0L341 286L154 286L154 0L110 0L110 680L364 680Q452 680 513.50 622.50Q575 565 575 482Q575 406 524 352Q473 298 390 288M154 327L363 327Q436 327 483.50 371.50Q531 416 531 482Q531 548 483 593.50Q435 639 364 639L154 639L154 327Z"  horiz-adv-x="635" vert-adv-y="1000"  />

      
      <glyph glyph-name="uni53" unicode="&#x53;" d="M298-11Q164-11 66 69L91 105Q177 30 298 30Q373 30 422.50 68Q472 106 472 172Q472 232 429 266Q386 300 294 333Q256 347 234.50 355.50Q213 364 180.50 382Q148 400 130.50 418Q113 436 99.50 464.50Q86 493 86 526Q86 601 146 646Q206 691 290 691Q404 691 490 626L468 592Q390 650 292 650Q225 650 178 617.50Q131 585 131 528Q131 496 142 473Q153 450 186 430Q219 410 233.50 403.50Q248 397 298 379Q306 376 310 374Q413 336 464.50 292.50Q516 249 516 173Q516 88 455 38.50Q394-11 298-11Z"  horiz-adv-x="577" vert-adv-y="1000"  />

      
      <glyph glyph-name="uni54" unicode="&#x54;" d="M514 680L514 639L293 639L293 0L249 0L249 639L28 639L28 680L514 680Z"  horiz-adv-x="541" vert-adv-y="1000"  />

      
      <glyph glyph-name="uni55" unicode="&#x55;" d="M536 50Q536 50 499.50 19Q463-12 355-12Q247-12 174 50Q101 112 101 221L101 680L145 680L145 222Q145 131 203.50 80Q262 29 355 29Q449 29 507 80Q565 131 565 222L565 680L609 680L609 221Q609 112 536 50Z"  horiz-adv-x="710" vert-adv-y="1000"  />

      
      <glyph glyph-name="uni56" unicode="&#x56;" d="M611 680L658 680L658 678L346-5L331-5L18 678L18 680L64 680L304 155Q328 101 338 77Q343 91 373 156L611 680Z"  horiz-adv-x="677" vert-adv-y="1000"  />

      
      <glyph glyph-name="uni57" unicode="&#x57;" d="M903 680L949 680L949 678L716-5L702-5L506 495Q491 536 486 553Q473 514 466 496L270-5L256-5L24 678L24 680L69 680L243 165Q255 130 267 90Q285 145 294 165L478 643L493 643L673 180Q693 129 705 88L734 178L903 680Z"  horiz-adv-x="972" vert-adv-y="1000"  />

      
      <glyph glyph-name="uni58" unicode="&#x58;" d="M25 0L25 2L280 354L45 678L45 680L97 680L253 465Q280 428 307 387Q334 429 361 468L515 680L566 680L566 678L332 354L588 2L588 0L536 0L363 239Q362 241 339.50 272Q317 303 306 321Q287 291 249 238L76 0L25 0Z"  horiz-adv-x="612" vert-adv-y="1000"  />

      
      <glyph glyph-name="uni59" unicode="&#x59;" d="M543 680L593 680L593 678L333 306L333 0L289 0L289 306L29 678L29 680L80 680L256 429Q303 359 312 344Q329 373 367 429L543 680Z"  horiz-adv-x="622" vert-adv-y="1000"  />

      
      <glyph glyph-name="uni5a" unicode="&#x5a;" d="M46 0L46 14L418 590Q434 618 450 640Q431 639 395 639L63 639L63 680L515 680L515 666L148 96Q144 90 131 70.50Q118 51 111 40Q132 41 170 41L527 41L527 0L46 0Z"  horiz-adv-x="569" vert-adv-y="1000"  />

      
      <glyph glyph-name="uni5b" unicode="&#x5b;" d="M86-187L86 759L239 759L239 722L126 722L126-150L239-150L239-187L86-187Z"  horiz-adv-x="279" vert-adv-y="1000"  />

      
      <glyph glyph-name="uni5c" unicode="&#x5c;" d="M305-10L43 690L86 690L349-10L305-10Z"  horiz-adv-x="392" vert-adv-y="1000"  />

      
      <glyph glyph-name="uni5d" unicode="&#x5d;" d="M193-187L40-187L40-150L153-150L153 722L40 722L40 759L193 759L193-187Z"  horiz-adv-x="279" vert-adv-y="1000"  />

      
      <glyph glyph-name="uni5e" unicode="&#x5e;" d="M65 354L225 680L252 680L415 354L372 354L239 627L108 354L65 354Z"  horiz-adv-x="481" vert-adv-y="1000"  />

      
      <glyph glyph-name="uni5f" unicode="&#x5f;" d="M59-60L59-25L443-25L443-60L59-60Z"  horiz-adv-x="501" vert-adv-y="1000"  />

      
      <glyph glyph-name="uni60" unicode="&#x60;" d="M187 570L48 674L76 707L208 594L187 570Z"  horiz-adv-x="248" vert-adv-y="1000"  />

      
      <glyph glyph-name="uni61" unicode="&#x61;" d="M251 474Q330 474 375.50 434Q421 394 421 315L421 0L388 0L381 112Q360 55 311 24Q262-7 196-7Q130-7 89.50 28Q49 63 49 122Q49 202 113.50 242Q178 282 280 282Q337 282 379 276L379 317Q379 376 344 405.50Q309 435 247 435Q172 435 87 394L72 431Q161 474 251 474M201 32Q282 32 329.50 88Q377 144 379 240Q329 245 284 245Q93 245 93 123Q93 80 123 56Q153 32 201 32Z"  horiz-adv-x="500" vert-adv-y="1000"  />

      
      <glyph glyph-name="uni62" unicode="&#x62;" d="M323 477Q425 477 490.50 408Q556 339 556 235Q556 129 491 60.50Q426-8 323-8Q257-8 205 22.50Q153 53 125 106L119 0L86 0L86 719L128 719L128 469Q128 435 126 363Q155 417 206.50 447Q258 477 323 477M321 32Q406 32 460 89.50Q514 147 514 235Q514 323 460.50 380Q407 437 321 437Q235 437 181 379.50Q127 322 127 235Q127 147 180.50 89.50Q234 32 321 32Z"  horiz-adv-x="608" vert-adv-y="1000"  />

      
      <glyph glyph-name="uni63" unicode="&#x63;" d="M284-9Q186-9 119 58.50Q52 126 52 235Q52 346 120.50 412Q189 478 287 478Q382 478 453 413L428 383Q367 438 288 438Q203 438 148.50 381Q94 324 94 235Q94 144 148.50 87Q203 30 286 30Q374 30 436 91L460 61Q422 25 382 8Q342-9 284-9Z"  horiz-adv-x="488" vert-adv-y="1000"  />

      
      <glyph glyph-name="uni64" unicode="&#x64;" d="M480 719L522 719L522 0L489 0L483 106Q455 53 403.50 22.50Q352-8 285-8Q182-8 117 60.50Q52 129 52 235Q52 339 117.50 408Q183 477 285 477Q351 477 402.50 447Q454 417 482 363Q480 437 480 469L480 719M287 32Q374 32 427.50 89.50Q481 147 481 235Q481 322 427 379.50Q373 437 287 437Q201 437 147.50 380Q94 323 94 235Q94 147 148 89.50Q202 32 287 32Z"  horiz-adv-x="608" vert-adv-y="1000"  />

      
      <glyph glyph-name="uni65" unicode="&#x65;" d="M283 479Q382 479 437 416.50Q492 354 492 254Q492 241 490 215L95 215Q100 130 155 79.50Q210 29 286 29Q382 29 443 93L468 63Q393-10 288-10Q183-10 117.50 58.50Q52 127 52 235Q52 337 116 408Q180 479 283 479M283 439Q205 439 153 387Q101 335 95 253L450 253Q451 338 407 388.50Q363 439 283 439Z"  horiz-adv-x="537" vert-adv-y="1000"  />

      
      <glyph glyph-name="uni66" unicode="&#x66;" d="M115 0L115 430L23 430L23 469L115 469L115 568Q115 639 152.50 684.50Q190 730 261 730Q321 730 378 690L357 659Q310 690 265 690Q214 690 185.50 658.50Q157 627 157 568L157 469L324 469L324 430L157 430L157 0L115 0Z"  horiz-adv-x="338" vert-adv-y="1000"  />

      
      <glyph glyph-name="uni67" unicode="&#x67;" d="M489 469L522 469L522-18Q522-119 457-174.50Q392-230 294-230Q173-230 88-148L113-118Q190-190 293-190Q373-190 426.50-146.50Q480-103 480-18Q480 68 482 104Q453 52 400.50 22.50Q348-7 284-7Q180-7 116 63.50Q52 134 52 235Q52 337 115 407Q178 477 283 477Q349 477 401 447Q453 417 481 365L489 469M285 33Q376 33 428.50 92Q481 151 481 235Q481 319 429 378Q377 437 286 437Q199 437 146.50 378.50Q94 320 94 235Q94 150 146.50 91.50Q199 33 285 33Z"  horiz-adv-x="608" vert-adv-y="1000"  />

      
      <glyph glyph-name="uni68" unicode="&#x68;" d="M302 477Q385 477 427 427Q469 377 469 287L469 0L427 0L427 288Q427 437 297 437Q222 437 175 380Q128 323 128 234L128 0L86 0L86 719L128 719L128 430Q128 387 127 363Q147 411 192 444Q237 477 302 477Z"  horiz-adv-x="548" vert-adv-y="1000"  />

      
      <glyph glyph-name="uni69" unicode="&#x69;" d="M131.50 602.50Q131.50 602.50 126.75 597.75Q122 593 107 593Q92 593 82.50 603Q73 613 73 627Q73 641 82.50 650.50Q92 660 107 660Q122 660 131.50 650.50Q141 641 141 626Q141 612 131.50 602.50M86 0L86 469L128 469L128 0L86 0Z"  horiz-adv-x="214" vert-adv-y="1000"  />

      
      <glyph glyph-name="uni6a" unicode="&#x6a;" d="M134.50 603Q134.50 603 129.75 598.50Q125 594 110 594Q95 594 85.50 603.50Q76 613 76 627Q76 641 85.50 651Q95 661 110 661Q125 661 134.50 651Q144 641 144 626Q144 612 134.50 603M-27-230L-32-192Q36-186 62.50-154Q89-122 89-44L89 469L131 469L131-44Q131-138 97.50-180.50Q64-223-27-230Z"  horiz-adv-x="216" vert-adv-y="1000"  />

      
      <glyph glyph-name="uni6b" unicode="&#x6b;" d="M167 242L433 4L433 0L379 0L128 226L128 0L86 0L86 719L128 719L128 256L360 469L412 469L412 466L167 242Z"  horiz-adv-x="451" vert-adv-y="1000"  />

      
      <glyph glyph-name="uni6c" unicode="&#x6c;" d="M86 0L86 719L128 719L128 0L86 0Z"  horiz-adv-x="214" vert-adv-y="1000"  />

      
      <glyph glyph-name="uni6d" unicode="&#x6d;" d="M606 477Q683 477 724 428Q765 379 765 297L765 0L723 0L723 300Q723 363 692 400Q661 437 603 437Q534 437 490.50 383.50Q447 330 447 247L447 0L405 0L405 301Q405 361 374.50 399Q344 437 285 437Q216 437 172 384.50Q128 332 128 249L128 0L86 0L86 469L119 469L127 372Q147 417 189.50 447Q232 477 291 477Q348 477 386 448Q424 419 438 367Q460 417 503 447Q546 477 606 477Z"  horiz-adv-x="844" vert-adv-y="1000"  />

      
      <glyph glyph-name="uni6e" unicode="&#x6e;" d="M303 477Q387 477 428 427Q469 377 469 289L469 0L427 0L427 289Q427 437 298 437Q225 437 176.50 385Q128 333 128 248L128 0L86 0L86 469L119 469L128 369Q148 413 193.50 445Q239 477 303 477Z"  horiz-adv-x="548" vert-adv-y="1000"  />

      
      <glyph glyph-name="uni6f" unicode="&#x6f;" d="M463 59Q463 59 429.50 24.50Q396-10 291-10Q186-10 119 58.50Q52 127 52 235Q52 342 119 410.50Q186 479 291 479Q396 479 463 410.50Q530 342 530 235Q530 128 463 59M291 30Q377 30 432.50 87Q488 144 488 235Q488 325 433 382Q378 439 291 439Q204 439 149 382Q94 325 94 235Q94 144 149 87Q204 30 291 30Z"  horiz-adv-x="582" vert-adv-y="1000"  />

      
      <glyph glyph-name="uni70" unicode="&#x70;" d="M324 477Q424 477 489.50 408.50Q555 340 555 235Q555 129 490 60.50Q425-8 324-8Q259-8 207 22Q155 52 126 104Q128 34 128-13L128-220L86-220L86 469L119 469L127 366Q157 418 208.50 447.50Q260 477 324 477M181.50 88.50Q181.50 88.50 209.25 59.75Q237 31 321 31Q405 31 458.50 88Q512 145 512 234Q512 323 458.50 380Q405 437 321 437Q236 437 181 380Q126 323 126 235Q126 146 181.50 88.50Z"  horiz-adv-x="607" vert-adv-y="1000"  />

      
      <glyph glyph-name="uni71" unicode="&#x71;" d="M488 469L521 469L521-220L479-220L479-13Q479 36 481 108Q453 55 401 23.50Q349-8 284-8Q182-8 117 60.50Q52 129 52 235Q52 340 117.50 408.50Q183 477 284 477Q415 477 480 364L488 469M285 31Q369 31 424.50 88.50Q480 146 480 235Q480 324 425 380.50Q370 437 285 437Q201 437 147.50 380Q94 323 94 234Q94 146 148 88.50Q202 31 285 31Z"  horiz-adv-x="607" vert-adv-y="1000"  />

      
      <glyph glyph-name="uni72" unicode="&#x72;" d="M267 477Q304 477 339 462L326 425Q293 437 262 437Q201 437 164.50 391Q128 345 128 269L128 0L86 0L86 469L119 469L126 384Q165 477 267 477Z"  horiz-adv-x="357" vert-adv-y="1000"  />

      
      <glyph glyph-name="uni73" unicode="&#x73;" d="M216-7Q123-7 47 46L71 80Q134 32 216 32Q264 32 294.50 55.50Q325 79 325 118Q325 152 296 175Q267 198 208 221Q137 249 101 278.50Q65 308 65 359Q65 412 107.50 443Q150 474 211 474Q287 474 349 433L330 401Q276 435 213 435Q165 435 136.50 414.50Q108 394 108 358Q108 323 135.50 302.50Q163 282 223 258Q295 229 331.50 198.50Q368 168 368 118Q368 61 325 27Q282-7 216-7Z"  horiz-adv-x="415" vert-adv-y="1000"  />

      
      <glyph glyph-name="uni74" unicode="&#x74;" d="M243-7Q185-7 154 27.50Q123 62 123 127L123 430L31 433L31 469L123 469L123 619L165 619L165 469L346 469L346 430L165 430L165 127Q165 33 246 33Q297 33 343 70L363 38Q305-7 243-7Z"  horiz-adv-x="381" vert-adv-y="1000"  />

      
      <glyph glyph-name="uni75" unicode="&#x75;" d="M417 469L459 469L459 0L425 0L417 102Q397 57 353 25Q309-7 247-7Q162-7 120.50 44Q79 95 79 182L79 469L121 469L121 182Q121 32 251 32Q323 32 370 88.50Q417 145 417 234L417 469Z"  horiz-adv-x="545" vert-adv-y="1000"  />

      
      <glyph glyph-name="uni76" unicode="&#x76;" d="M429 469L474 469L474 467L255-4L239-4L20 467L20 469L64 469L229 112Q239 88 247 65Q250 76 265 112L429 469Z"  horiz-adv-x="494" vert-adv-y="1000"  />

      
      <glyph glyph-name="uni77" unicode="&#x77;" d="M643 469L686 469L686 467L520-4L506-4L356 353L205-4L191-4L26 467L26 469L68 469L187 129Q196 103 202 81Q210 103 220 127L350 435L362 435L490 128Q496 115 509 81Q514 100 524 130L643 469Z"  horiz-adv-x="711" vert-adv-y="1000"  />

      
      <glyph glyph-name="uni78" unicode="&#x78;" d="M33 0L33 2L214 246L51 467L51 469L99 469L200 332Q205 324 218 306Q231 288 238 277Q255 304 277 332L378 469L425 469L425 467L262 246L442 2L442 0L394 0L279 155L238 215Q217 184 196 155L81 0L33 0Z"  horiz-adv-x="476" vert-adv-y="1000"  />

      
      <glyph glyph-name="uni79" unicode="&#x79;" d="M419 469L463 469L463 467L177-220L133-220L133-218L231 13L20 467L20 469L64 469L220 135Q240 89 252 58Q262 90 281 135L419 469Z"  horiz-adv-x="483" vert-adv-y="1000"  />

      
      <glyph glyph-name="uni7a" unicode="&#x7a;" d="M175 39L398 39L398 0L48 0L48 17L295 378L330 430Q307 429 269 429L59 429L59 469L392 469L392 452L149 97Q123 59 108 39L175 39Z"  horiz-adv-x="445" vert-adv-y="1000"  />

      
      <glyph glyph-name="uni7b" unicode="&#x7b;" d="M284-190Q149-197 149-67L149 167Q149 215 130 241.50Q111 268 65 267L65 304Q149 304 149 404L149 638Q149 768 284 761L284 724Q231 727 209.50 706Q188 685 188 638L188 401Q188 310 125 286Q188 260 188 171L188-67Q188-114 209.50-134.50Q231-155 284-153L284-190Z"  horiz-adv-x="324" vert-adv-y="1000"  />

      
      <glyph glyph-name="uni7c" unicode="&#x7c;" d="M100-166L100 739L141 739L141-166L100-166Z"  horiz-adv-x="241" vert-adv-y="1000"  />

      
      <glyph glyph-name="uni7d" unicode="&#x7d;" d="M40-190L40-153Q93-155 114.50-134.50Q136-114 136-67L136 171Q136 260 199 286Q136 310 136 401L136 638Q136 685 114.50 706Q93 727 40 724L40 761Q175 768 175 638L175 404Q175 304 259 304L259 267Q213 268 194 241.50Q175 215 175 167L175-67Q175-197 40-190Z"  horiz-adv-x="324" vert-adv-y="1000"  />

      
      <glyph glyph-name="uni7e" unicode="&#x7e;" d="M117 291L84 309Q123 396 197 396Q241 396 298 358Q351 323 386 323Q433 323 463 392L496 375Q460 285 386 285Q342 285 287 322Q234 357 198 357Q146 357 117 291Z"  horiz-adv-x="581" vert-adv-y="1000"  />

      
      <glyph glyph-name="unia1" unicode="&#xa1;" d="M126 410Q141 410 151.50 401Q162 392 162 375Q162 358 151.50 349Q141 340 126 340Q112 340 101.50 349Q91 358 91 375Q91 392 101.50 401Q112 410 126 410M107 238L145 238L150-280L103-280L107 238Z"  horiz-adv-x="253" vert-adv-y="1000"  />

      
      <glyph glyph-name="unia2" unicode="&#xa2;" d="M455 167Q395 90 300 84L300-4L262-4L262 84Q172 91 115.50 156Q59 221 59 323Q59 427 117 492.50Q175 558 262 565L262 651L300 651L300 565Q387 558 445 486L416 460Q364 526 282 526Q203 526 152 469.50Q101 413 101 323Q101 234 151.50 178.50Q202 123 283 123Q370 123 427 194L455 167Z"  horiz-adv-x="501" vert-adv-y="1000"  />

      
      <glyph glyph-name="unia3" unicode="&#xa3;" d="M115 41L461 41L461 0L52 0L44 19Q104 79 143.50 148.50Q183 218 183 275Q183 283 181 297L63 297L63 335L169 335Q163 349 142.50 384.50Q122 420 111 449.50Q100 479 100 512Q100 580 152 625Q204 670 277 670Q370 670 438 605L412 576Q356 629 280 629Q221 629 182.50 595Q144 561 144 511Q144 474 176.50 411.50Q209 349 214 335L379 335L379 297L223 297Q225 283 225 275Q225 165 115 41Z"  horiz-adv-x="499" vert-adv-y="1000"  />

      
      <glyph glyph-name="unia4" unicode="&#xa4;" d="M84 143L60 167L123 230Q85 279 85 350Q85 421 123 470L60 533L84 557L146 495Q195 539 267 539Q340 539 387 495L450 557L474 533L411 470Q449 421 449 350Q449 279 411 230L474 167L450 143L387 205Q340 161 267 161Q195 161 146 205L84 143M164 240Q164 240 184 218.50Q204 197 267 197Q330 197 370 240Q410 283 410 350Q410 417 370 460Q330 503 267 503Q204 503 164 460Q124 417 124 350Q124 283 164 240Z"  horiz-adv-x="534" vert-adv-y="1000"  />

      
      <glyph glyph-name="unia5" unicode="&#xa5;" d="M280 0L280 176L107 176L107 213L280 213L280 289L107 289L107 326L263 326L28 661L78 661L302 339L526 661L576 661L341 326L498 326L498 289L324 289L324 213L498 213L498 176L324 176L324 0L280 0Z"  horiz-adv-x="604" vert-adv-y="1000"  />

      
      <glyph glyph-name="unia6" unicode="&#xa6;" d="M100 353L100 739L141 739L141 353L100 353M100-166L100 238L141 238L141-166L100-166Z"  horiz-adv-x="241" vert-adv-y="1000"  />

      
      <glyph glyph-name="unia7" unicode="&#xa7;" d="M262-51Q161-51 83 12L107 43Q175-13 261-13Q323-13 359.50 13.50Q396 40 396 92Q396 134 362 161.50Q328 189 262 211Q226 223 207.50 229.50Q189 236 159 250Q129 264 114 277.50Q99 291 87 312Q75 333 75 357Q75 391 93.50 420.50Q112 450 144 468Q101 503 101 555Q101 618 148.50 654Q196 690 266 690Q349 690 421 644L402 613Q340 654 270 654Q213 654 177 627.50Q141 601 141 556Q141 515 175.50 491Q210 467 273 446Q313 433 341 421Q369 409 399 390.50Q429 372 444.50 347Q460 322 460 292Q460 223 398 182Q436 147 436 93Q436 26 388.50-12.50Q341-51 262-51M372 203Q421 234 421 287Q421 311 408.50 330.50Q396 350 369 365Q342 380 320 389Q298 398 259 411Q206 427 174 446Q115 415 115 361Q115 343 126 326.50Q137 310 149 300.50Q161 291 188 279Q215 267 228.50 262.50Q242 258 275 247Q338 228 372 203Z"  horiz-adv-x="536" vert-adv-y="1000"  />

      
      <glyph glyph-name="unia8" unicode="&#xa8;" d="M116 605Q116 605 111.50 600Q107 595 92 595Q77 595 68 604.50Q59 614 59 628Q59 641 68 651Q77 661 92 661Q106 661 115.50 651Q125 641 125 628Q125 615 116 605M277 595Q262 595 253 605Q244 615 244 628Q244 641 253 651Q262 661 277 661Q292 661 301 651Q310 641 310 628Q310 615 300.50 605Q291 595 277 595Z"  horiz-adv-x="360" vert-adv-y="1000"  />

      
      <glyph glyph-name="unia9" unicode="&#xa9;" d="M648 95.50Q648 95.50 601 46.25Q554-3 404-3Q254-3 160 95.50Q66 194 66 340Q66 486 160 584Q254 682 404 682Q554 682 648 584Q742 486 742 340Q742 194 648 95.50M187 120Q187 120 229 76.50Q271 33 404 33Q537 33 621 120Q705 207 705 340Q705 473 621 559.50Q537 646 404 646Q271 646 187 559.50Q103 473 103 340Q103 207 187 120M544 216Q491 159 416 159Q341 159 290.50 208.50Q240 258 240 341Q240 425 291.50 474.50Q343 524 415 524Q483 524 537 473L517 448Q471 489 414 489Q353 489 314.50 447.50Q276 406 276 341Q276 276 315.50 234Q355 192 416 192Q478 192 524 240L544 216Z"  horiz-adv-x="807" vert-adv-y="1000"  />

      
      <glyph glyph-name="uniaa" unicode="&#xaa;" d="M139 449Q108 449 86.50 468Q65 487 65 520Q65 559 101 580Q137 601 190 601Q201 601 223 599L223 626Q223 680 166 680Q128 680 88 660L76 687Q120 710 167 710Q207 710 231 689Q255 668 255 626L255 455L231 455L225 498Q202 449 139 449M144 477Q181 477 202 503Q223 529 223 572Q203 574 191 574Q151 574 123.50 560Q96 546 96 519Q96 500 109 488.50Q122 477 144 477M68 351L68 381L255 381L255 351L68 351Z"  horiz-adv-x="329" vert-adv-y="1000"  />

      
      <glyph glyph-name="uniab" unicode="&#xab;" d="M164 53L43 247L162 435L193 417L91 247L195 72L164 53M311 53L190 247L309 435L340 417L238 247L342 72L311 53Z"  horiz-adv-x="401" vert-adv-y="1000"  />

      
      <glyph glyph-name="uniac" unicode="&#xac;" d="M429 200L429 354L62 354L62 391L467 391L467 200L429 200Z"  horiz-adv-x="540" vert-adv-y="1000"  />

      
      <glyph glyph-name="uniae" unicode="&#xae;" d="M444.50 301.50Q444.50 301.50 412.75 269.25Q381 237 287 237Q193 237 129.50 301.50Q66 366 66 462Q66 558 129 622Q192 686 287 686Q382 686 445 622Q508 558 508 462Q508 366 444.50 301.50M151.50 323.50Q151.50 323.50 178.75 295.75Q206 268 287 268Q368 268 422 323.50Q476 379 476 462Q476 545 422 600Q368 655 287 655Q206 655 151.50 599.50Q97 544 97 462Q97 379 151.50 323.50M214 356L214 573L304 573Q333 573 352 555.50Q371 538 371 510Q371 484 353.50 466.50Q336 449 311 448L378 356L346 356L280 447L240 447L240 356L214 356M240 472L299 472Q319 472 332 482.50Q345 493 345 510Q345 528 332.50 538Q320 548 299 548L240 548L240 472Z"  horiz-adv-x="573" vert-adv-y="1000"  />

      
      <glyph glyph-name="uniaf" unicode="&#xaf;" d="M59 596L59 633L317 633L317 596L59 596Z"  horiz-adv-x="369" vert-adv-y="1000"  />

      
      <glyph glyph-name="unib0" unicode="&#xb0;" d="M286.50 461.50Q286.50 461.50 266.75 444.25Q247 427 190 427Q133 427 93.50 461.50Q54 496 54 558Q54 620 93.50 654.50Q133 689 190 689Q247 689 286.50 654.50Q326 620 326 558Q326 496 286.50 461.50M119.50 486.50Q119.50 486.50 133.25 473.25Q147 460 190 460Q233 460 260.50 486.50Q288 513 288 558Q288 603 260.50 629.50Q233 656 190 656Q147 656 119.50 629.50Q92 603 92 558Q92 513 119.50 486.50Z"  horiz-adv-x="381" vert-adv-y="1000"  />

      
      <glyph glyph-name="unib1" unicode="&#xb1;" d="M230 240L230 392L79 392L79 430L230 430L230 582L269 582L269 430L421 430L421 392L269 392L269 240L230 240M79 116L79 154L421 154L421 116L79 116Z"  horiz-adv-x="499" vert-adv-y="1000"  />

      
      <glyph glyph-name="unib4" unicode="&#xb4;" d="M72 570L51 594L183 707L210 675L72 570Z"  horiz-adv-x="255" vert-adv-y="1000"  />

      
      <glyph glyph-name="unib5" unicode="&#xb5;" d="M424 469L466 469L466 0L430 0L425 107Q406 61 362.50 27Q319-7 256-7Q161-7 125 64Q128-20 128-111L128-214L86-214L86 469L128 469L128 189Q128 33 259 33Q331 33 377.50 90Q424 147 424 234L424 469Z"  horiz-adv-x="552" vert-adv-y="1000"  />

      
      <glyph glyph-name="unib6" unicode="&#xb6;" d="M235-91L235 322Q151 323 102.50 374.50Q54 426 54 501Q54 577 102 628.50Q150 680 235 680L489 680L489-91L448-91L448 642L276 642L276-91L235-91Z"  horiz-adv-x="599" vert-adv-y="1000"  />

      
      <glyph glyph-name="unib7" unicode="&#xb7;" d="M122 315Q107 315 96.50 324Q86 333 86 350Q86 367 96.50 376Q107 385 122 385Q136 385 146.50 376Q157 367 157 350Q157 333 146.50 324Q136 315 122 315Z"  horiz-adv-x="243" vert-adv-y="1000"  />

      
      <glyph glyph-name="unib8" unicode="&#xb8;" d="M218.50-186.50Q218.50-186.50 205.25-197.75Q192-209 145-209Q98-209 55-183L70-155Q103-176 143-176Q174-176 191-163.50Q208-151 208-131Q208-104 179.50-89.50Q151-75 104-77L136-2L173-2L150-54Q194-57 219.50-78.50Q245-100 245-130Q245-164 218.50-186.50Z"  horiz-adv-x="292" vert-adv-y="1000"  />

      
      <glyph glyph-name="uniba" unicode="&#xba;" d="M252 490Q252 490 238 471Q224 452 172 452Q120 452 92 490.50Q64 529 64 581Q64 633 92 671.50Q120 710 172 710Q224 710 252 672Q280 634 280 581Q280 528 252 490M172 483Q206 483 226.50 511.50Q247 540 247 581Q247 623 226.50 651Q206 679 172 679Q139 679 118.50 650.50Q98 622 98 581Q98 540 118.50 511.50Q139 483 172 483M80 351L80 381L267 381L267 351L80 351Z"  horiz-adv-x="345" vert-adv-y="1000"  />

      
      <glyph glyph-name="unibb" unicode="&#xbb;" d="M90 53L59 72L163 247L61 417L92 435L211 247L90 53M237 53L206 72L310 247L208 417L239 435L358 247L237 53Z"  horiz-adv-x="401" vert-adv-y="1000"  />

      
      <glyph glyph-name="unibc" unicode="&#xbc;" d="M114 397L114 619L55 563L33 584L138 684L146 684L146 397L114 397M110 0L463 680L500 680L147 0L110 0M530 0L530 52L385 52L385 60L554 288L562 288L562 81L608 81L608 52L562 52L562 0L530 0M438 81L531 81L531 209L438 81Z"  horiz-adv-x="667" vert-adv-y="1000"  />

      
      <glyph glyph-name="unibd" unicode="&#xbd;" d="M114 397L114 619L55 563L33 584L138 684L146 684L146 397L114 397M463 680L500 680L147 0L110 0L463 680M502 30L630 30L630 0L442 0L442 8L559 150Q587 183 587 213Q587 235 573.50 249Q560 263 537 263Q500 263 481 222L454 233Q475 293 537 293Q575 293 597.50 270.50Q620 248 620 213Q620 174 585 130L502 30Z"  horiz-adv-x="679" vert-adv-y="1000"  />

      
      <glyph glyph-name="unibe" unicode="&#xbe;" d="M149 387Q89 387 58 424L79 445Q102 417 148 417Q180 417 198.50 433.50Q217 450 217 477Q217 502 200 516.50Q183 531 158 531L113 531L113 561L153 561Q175 561 189.50 574.50Q204 588 204 610Q204 632 189 646Q174 660 151 660Q116 660 90 636L69 657Q103 691 152 691Q187 691 211.50 669Q236 647 236 613Q236 567 197 548Q221 541 235.50 520.50Q250 500 250 476Q250 436 222.50 411.50Q195 387 149 387M203 0L556 680L593 680L240 0L203 0M623 0L623 52L478 52L478 60L647 288L655 288L655 81L701 81L701 52L655 52L655 0L623 0M531 81L624 81L624 209L531 81Z"  horiz-adv-x="760" vert-adv-y="1000"  />

      
      <glyph glyph-name="unibf" unicode="&#xbf;" d="M234 410Q248 410 258.50 401Q269 392 269 375Q269 358 258.50 349Q248 340 234 340Q219 340 208.50 349Q198 358 198 375Q198 392 208.50 401Q219 410 234 410M257 238Q259 210 259 199Q259 155 245.50 118.50Q232 82 218.50 64Q205 46 175 13Q169 6 151.50-13Q134-32 128-38.50Q122-45 111-60.50Q100-76 96-86Q92-96 88-110.50Q84-125 84-141Q84-187 119.50-218.50Q155-250 212-250Q299-250 359-183L387-213Q314-290 210-290Q132-290 86-245.50Q40-201 40-143Q40-127 42-113Q44-99 51.50-83.50Q59-68 62-60Q65-52 79.50-34Q94-16 98-11Q102-6 123 16.50Q144 39 148 44Q173 72 184.50 88Q196 104 206.50 134Q217 164 217 200Q217 210 215 238L257 238Z"  horiz-adv-x="417" vert-adv-y="1000"  />

      
      <glyph glyph-name="unic0" unicode="&#xc0;" d="M374 775L235 879L263 911L395 798L374 775M346 685L659 2L659 0L612 0L532 175L145 175L65 0L19 0L19 2L331 685L346 685M339 605Q331 584 315 548L164 216L513 216L362 548Q355 562 339 605Z"  horiz-adv-x="677" vert-adv-y="1000"  />

      
      <glyph glyph-name="unic1" unicode="&#xc1;" d="M417 879L279 775L258 798L390 911L417 879M346 685L659 2L659 0L612 0L533 175L145 175L65 0L19 0L19 2L331 685L346 685M338 605Q324 568 315 548L164 216L513 216L362 548Q357 558 349 578Q341 598 338 605Z"  horiz-adv-x="677" vert-adv-y="1000"  />

      
      <glyph glyph-name="unic2" unicode="&#xc2;" d="M228 762L209 786L334 886L343 886L467 785L449 762L338 843L228 762M346 685L659 2L659 0L612 0L532 175L145 175L65 0L19 0L19 2L331 685L346 685M339 605Q331 584 315 548L164 216L513 216L362 548Q355 562 339 605Z"  horiz-adv-x="677" vert-adv-y="1000"  />

      
      <glyph glyph-name="unic3" unicode="&#xc3;" d="M241 786L209 803Q230 865 278 865Q310 865 347 842Q380 824 397 824Q427 824 437 863L469 847Q448 785 400 785Q371 785 335 806Q304 825 283 825Q251 825 241 786M346 685L659 2L659 0L612 0L532 175L145 175L65 0L19 0L19 2L331 685L346 685M339 605Q331 584 315 548L164 216L513 216L362 548Q355 562 339 605Z"  horiz-adv-x="677" vert-adv-y="1000"  />

      
      <glyph glyph-name="unic4" unicode="&#xc4;" d="M244 792Q229 792 219 802Q209 812 209 827Q209 841 218.50 852Q228 863 244 863Q260 863 270 852.50Q280 842 280 828Q280 814 270 803Q260 792 244 792M458.50 802.50Q458.50 802.50 453.75 797.25Q449 792 433 792Q417 792 407 802.50Q397 813 397 827Q397 841 407 852Q417 863 433 863Q449 863 458.50 852Q468 841 468 827Q468 813 458.50 802.50M346 685L659 2L659 0L612 0L532 175L145 175L65 0L19 0L19 2L331 685L346 685M339 605Q331 584 315 548L164 216L513 216L362 548Q355 562 339 605Z"  horiz-adv-x="677" vert-adv-y="1000"  />

      
      <glyph glyph-name="unic5" unicode="&#xc5;" d="M339 735Q297 735 267.50 760Q238 785 238 827Q238 869 266.50 894.50Q295 920 337 920Q379 920 407.50 894.50Q436 869 436 827Q436 786 407.50 760.50Q379 735 339 735M291 782Q291 782 300.50 773.50Q310 765 338 765Q366 765 384 781.50Q402 798 402 827Q402 856 383.50 873Q365 890 337 890Q309 890 290.50 873Q272 856 272 827Q272 799 291 782M346 685L659 2L659 0L612 0L532 175L145 175L65 0L19 0L19 2L331 685L346 685M339 605Q331 584 315 548L164 216L513 216L362 548Q355 562 339 605Z"  horiz-adv-x="677" vert-adv-y="1000"  />

      
      <glyph glyph-name="unic6" unicode="&#xc6;" d="M491 41L815 41L815 0L448 0L448 176L172 176L57 0L8 0L8 2L450 680L806 680L806 639L491 639L491 373L764 373L764 332L491 332L491 41M198 216L448 216L448 517L448 604Q435 581 416 552L198 216Z"  horiz-adv-x="862" vert-adv-y="1000"  />

      
      <glyph glyph-name="unic7" unicode="&#xc7;" d="M680 123Q583 1 437-10L418-53Q463-56 488.50-77.50Q514-99 514-130Q514-165 487-187.50Q460-210 413-210Q362-210 321-185L336-155Q370-177 410-177Q442-177 459-164Q476-151 476-131Q476-104 447-89.50Q418-75 370-77L398-11Q252-7 159 94.50Q66 196 66 341Q66 489 162.50 590Q259 691 409 691Q561 691 668 579L641 551Q547 650 409 650Q279 650 194.50 561.50Q110 473 110 341Q110 210 194.50 120Q279 30 409 30Q552 30 649 149L680 123Z"  horiz-adv-x="713" vert-adv-y="1000"  />

      
      <glyph glyph-name="unic8" unicode="&#xc8;" d="M344 775L205 879L233 911L365 798L344 775M154 41L513 41L513 0L110 0L110 680L504 680L504 639L154 639L154 371L459 371L459 330L154 330L154 41Z"  horiz-adv-x="560" vert-adv-y="1000"  />

      
      <glyph glyph-name="unic9" unicode="&#xc9;" d="M386 879L248 775L227 798L359 911L386 879M154 41L513 41L513 0L110 0L110 680L504 680L504 639L154 639L154 371L459 371L459 330L154 330L154 41Z"  horiz-adv-x="560" vert-adv-y="1000"  />

      
      <glyph glyph-name="unica" unicode="&#xca;" d="M197 762L178 786L303 886L312 886L436 785L418 762L307 843L197 762M154 41L513 41L513 0L110 0L110 680L504 680L504 639L154 639L154 371L459 371L459 330L154 330L154 41Z"  horiz-adv-x="560" vert-adv-y="1000"  />

      
      <glyph glyph-name="unicb" unicode="&#xcb;" d="M213 792Q198 792 188 802Q178 812 178 827Q178 841 187.50 852Q197 863 213 863Q229 863 239 852.50Q249 842 249 828Q249 814 239 803Q229 792 213 792M427.50 802.50Q427.50 802.50 422.75 797.25Q418 792 402 792Q386 792 376 802.50Q366 813 366 827Q366 841 376 852Q386 863 402 863Q418 863 427.50 852Q437 841 437 827Q437 813 427.50 802.50M154 41L513 41L513 0L110 0L110 680L504 680L504 639L154 639L154 371L459 371L459 330L154 330L154 41Z"  horiz-adv-x="560" vert-adv-y="1000"  />

      
      <glyph glyph-name="unicc" unicode="&#xcc;" d="M168 775L29 879L57 911L189 798L168 775M110 0L110 680L154 680L154 0L110 0Z"  horiz-adv-x="264" vert-adv-y="1000"  />

      
      <glyph glyph-name="unicd" unicode="&#xcd;" d="M72 775L51 798L183 911L210 879L72 775M110 0L110 680L154 680L154 0L110 0Z"  horiz-adv-x="264" vert-adv-y="1000"  />

      
      <glyph glyph-name="unice" unicode="&#xce;" d="M22 762L3 786L128 886L137 886L261 785L243 762L132 843L22 762M110 0L110 680L154 680L154 0L110 0Z"  horiz-adv-x="264" vert-adv-y="1000"  />

      
      <glyph glyph-name="unicf" unicode="&#xcf;" d="M37 792Q22 792 12 802Q2 812 2 827Q2 841 11.50 852Q21 863 37 863Q53 863 63 852.50Q73 842 73 828Q73 814 63 803Q53 792 37 792M251.50 802.50Q251.50 802.50 246.75 797.25Q242 792 226 792Q210 792 200 802.50Q190 813 190 827Q190 841 200 852Q210 863 226 863Q242 863 251.50 852Q261 841 261 827Q261 813 251.50 802.50M110 0L110 680L154 680L154 0L110 0Z"  horiz-adv-x="264" vert-adv-y="1000"  />

      
      <glyph glyph-name="unid0" unicode="&#xd0;" d="M317 680Q471 680 567.50 584Q664 488 664 339Q664 190 568.50 95Q473 0 318 0L111 0L111 328L33 328L33 363L111 363L111 680L317 680M318 41Q454 41 537 124.50Q620 208 620 339Q620 469 536 554Q452 639 317 639L155 639L155 363L351 363L351 328L155 328L155 41L318 41Z"  horiz-adv-x="730" vert-adv-y="1000"  />

      
      <glyph glyph-name="unid1" unicode="&#xd1;" d="M338 825Q307 825 296 786L265 803Q286 865 334 865Q364 865 403 842Q436 824 452 824Q482 824 493 863L524 847Q503 785 455 785Q427 785 391 806Q360 825 338 825M622 680L666 680L666-5L647-5L191 547Q165 577 153 592Q154 574 154 539L154 0L110 0L110 685L129 685L584 135Q610 105 623 89Q622 110 622 148L622 680Z"  horiz-adv-x="776" vert-adv-y="1000"  />

      
      <glyph glyph-name="unid2" unicode="&#xd2;" d="M444 775L305 879L333 911L465 798L444 775M408-11Q260-11 163 91Q66 193 66 340Q66 491 162.50 591Q259 691 408 691Q558 691 654 591Q750 491 750 340Q750 192 653.50 90.50Q557-11 408-11M408 30Q538 30 622 119.50Q706 209 706 340Q706 474 622.50 562Q539 650 408 650Q277 650 193.50 562Q110 474 110 340Q110 209 194.50 119.50Q279 30 408 30Z"  horiz-adv-x="816" vert-adv-y="1000"  />

      
      <glyph glyph-name="unid3" unicode="&#xd3;" d="M348 775L327 798L459 911L486 879L348 775M408-11Q260-11 163 91Q66 193 66 340Q66 491 162.50 591Q259 691 408 691Q558 691 654 591Q750 491 750 340Q750 192 653.50 90.50Q557-11 408-11M408 30Q538 30 622 119.50Q706 209 706 340Q706 474 622.50 562Q539 650 408 650Q277 650 193.50 562Q110 474 110 340Q110 209 194.50 119.50Q279 30 408 30Z"  horiz-adv-x="816" vert-adv-y="1000"  />

      
      <glyph glyph-name="unid4" unicode="&#xd4;" d="M297 762L278 786L403 886L412 886L536 785L518 762L407 843L297 762M408-11Q260-11 163 91Q66 193 66 340Q66 491 162.50 591Q259 691 408 691Q558 691 654 591Q750 491 750 340Q750 192 653.50 90.50Q557-11 408-11M408 30Q538 30 622 119.50Q706 209 706 340Q706 474 622.50 562Q539 650 408 650Q277 650 193.50 562Q110 474 110 340Q110 209 194.50 119.50Q279 30 408 30Z"  horiz-adv-x="816" vert-adv-y="1000"  />

      
      <glyph glyph-name="unid5" unicode="&#xd5;" d="M310 786L278 803Q299 865 347 865Q379 865 416 842Q449 824 466 824Q496 824 506 863L538 847Q517 785 469 785Q440 785 404 806Q373 825 352 825Q320 825 310 786M408-11Q260-11 163 91Q66 193 66 340Q66 491 162.50 591Q259 691 408 691Q558 691 654 591Q750 491 750 340Q750 192 653.50 90.50Q557-11 408-11M408 30Q538 30 622 119.50Q706 209 706 340Q706 474 622.50 562Q539 650 408 650Q277 650 193.50 562Q110 474 110 340Q110 209 194.50 119.50Q279 30 408 30Z"  horiz-adv-x="816" vert-adv-y="1000"  />

      
      <glyph glyph-name="unid6" unicode="&#xd6;" d="M313 792Q298 792 288 802Q278 812 278 827Q278 841 287.50 852Q297 863 313 863Q329 863 339 852.50Q349 842 349 828Q349 814 339 803Q329 792 313 792M527.50 802.50Q527.50 802.50 522.75 797.25Q518 792 502 792Q486 792 476 802.50Q466 813 466 827Q466 841 476 852Q486 863 502 863Q518 863 527.50 852Q537 841 537 827Q537 813 527.50 802.50M408-11Q260-11 163 91Q66 193 66 340Q66 491 162.50 591Q259 691 408 691Q558 691 654 591Q750 491 750 340Q750 192 653.50 90.50Q557-11 408-11M408 30Q538 30 622 119.50Q706 209 706 340Q706 474 622.50 562Q539 650 408 650Q277 650 193.50 562Q110 474 110 340Q110 209 194.50 119.50Q279 30 408 30Z"  horiz-adv-x="816" vert-adv-y="1000"  />

      
      <glyph glyph-name="unid7" unicode="&#xd7;" d="M112 183L85 210L215 340L85 470L112 497L243 367L373 497L400 470L270 340L400 210L373 183L243 313L112 183Z"  horiz-adv-x="485" vert-adv-y="1000"  />

      
      <glyph glyph-name="unid8" unicode="&#xd8;" d="M623 619Q683 571 716.50 498.50Q750 426 750 340Q750 192 653.50 90.50Q557-11 408-11Q303-11 222 42L160-47L129-26L192 64Q132 112 99 184.50Q66 257 66 340Q66 491 162.50 591Q259 691 408 691Q514 691 594 640L658 733L689 713L623 619M110 340Q110 190 216 98L570 605Q500 650 408 650Q277 650 193.50 562Q110 474 110 340M408 30Q538 30 622 119Q706 208 706 340Q706 496 598 585L245 77Q317 30 408 30Z"  horiz-adv-x="816" vert-adv-y="1000"  />

      
      <glyph glyph-name="unid9" unicode="&#xd9;" d="M392 775L253 879L281 911L413 798L392 775M536 50Q536 50 499.50 19Q463-12 355-12Q247-12 174 50Q101 112 101 221L101 680L145 680L145 222Q145 131 203.50 80Q262 29 355 29Q449 29 507 80Q565 131 565 222L565 680L609 680L609 221Q609 112 536 50Z"  horiz-adv-x="710" vert-adv-y="1000"  />

      
      <glyph glyph-name="unida" unicode="&#xda;" d="M296 775L275 798L407 911L434 879L296 775M536 50Q536 50 499.50 19Q463-12 355-12Q247-12 174 50Q101 112 101 221L101 680L145 680L145 222Q145 131 203.50 80Q262 29 355 29Q449 29 507 80Q565 131 565 222L565 680L609 680L609 221Q609 112 536 50Z"  horiz-adv-x="710" vert-adv-y="1000"  />

      
      <glyph glyph-name="unidb" unicode="&#xdb;" d="M245 762L226 786L351 886L360 886L484 785L466 762L355 843L245 762M536 50Q536 50 499.50 19Q463-12 355-12Q247-12 174 50Q101 112 101 221L101 680L145 680L145 222Q145 131 203.50 80Q262 29 355 29Q449 29 507 80Q565 131 565 222L565 680L609 680L609 221Q609 112 536 50Z"  horiz-adv-x="710" vert-adv-y="1000"  />

      
      <glyph glyph-name="unidc" unicode="&#xdc;" d="M261 792Q246 792 236 802Q226 812 226 827Q226 841 235.50 852Q245 863 261 863Q277 863 287 852.50Q297 842 297 828Q297 814 287 803Q277 792 261 792M475.50 802.50Q475.50 802.50 470.75 797.25Q466 792 450 792Q434 792 424 802.50Q414 813 414 827Q414 841 424 852Q434 863 450 863Q466 863 475.50 852Q485 841 485 827Q485 813 475.50 802.50M536 50Q536 50 499.50 19Q463-12 355-12Q247-12 174 50Q101 112 101 221L101 680L145 680L145 222Q145 131 203.50 80Q262 29 355 29Q449 29 507 80Q565 131 565 222L565 680L609 680L609 221Q609 112 536 50Z"  horiz-adv-x="710" vert-adv-y="1000"  />

      
      <glyph glyph-name="unidd" unicode="&#xdd;" d="M390 879L252 775L231 798L363 911L390 879M543 680L593 680L593 678L333 306L333 0L289 0L289 306L29 678L29 680L80 680L256 429Q303 359 312 344Q316 352 367 429L543 680Z"  horiz-adv-x="622" vert-adv-y="1000"  />

      
      <glyph glyph-name="unide" unicode="&#xde;" d="M110 0L110 680L155 680L155 546L355 546Q450 546 506 484Q562 422 562 343Q562 263 506.50 204Q451 145 352 145L155 145L155 0L110 0M155 186L351 186Q428 186 473 231.50Q518 277 518 343Q518 411 472 458Q426 505 355 505L155 505L155 186Z"  horiz-adv-x="598" vert-adv-y="1000"  />

      
      <glyph glyph-name="unidf" unicode="&#xdf;" d="M318-5Q261-5 219 14L230 52Q265 33 316 33Q373 33 411 59Q449 85 449 129Q449 157 434 179.50Q419 202 397.50 218.50Q376 235 355 252Q334 269 319 293.50Q304 318 304 349Q304 383 319 411Q334 439 352 455.50Q370 472 385 502.50Q400 533 400 572Q400 624 366 655.50Q332 687 272 687Q128 687 128 503L128 0L86 0L86 505Q86 615 133.50 671Q181 727 272 727Q349 727 395.50 683.50Q442 640 442 571Q442 527 427 493.50Q412 460 394 442.50Q376 425 361 401Q346 377 346 351Q346 321 368.50 295.50Q391 270 418.50 252.50Q446 235 468.50 203Q491 171 491 130Q491 65 441.50 30Q392-5 318-5Z"  horiz-adv-x="525" vert-adv-y="1000"  />

      
      <glyph glyph-name="unie0" unicode="&#xe0;" d="M311 594L290 570L151 674L179 707L311 594M251 474Q330 474 375.50 434Q421 394 421 315L421 0L388 0L381 112Q360 55 311 24Q262-7 196-7Q130-7 89.50 28Q49 63 49 122Q49 202 113.50 242Q178 282 280 282Q337 282 379 276L379 317Q379 376 344 405.50Q309 435 247 435Q172 435 87 394L72 431Q161 474 251 474M201 32Q282 32 329.50 88Q377 144 379 240Q329 245 284 245Q93 245 93 123Q93 80 123 56Q153 32 201 32Z"  horiz-adv-x="500" vert-adv-y="1000"  />

      
      <glyph glyph-name="unie1" unicode="&#xe1;" d="M323 675L185 570L164 594L296 707L323 675M251 474Q330 474 375.50 434Q421 394 421 315L421 0L388 0L381 112Q360 55 311 24Q262-7 196-7Q130-7 89.50 28Q49 63 49 122Q49 202 113.50 242Q178 282 280 282Q337 282 379 276L379 317Q379 376 344 405.50Q309 435 247 435Q172 435 87 394L72 431Q161 474 251 474M201 32Q282 32 329.50 88Q377 144 379 240Q329 245 284 245Q93 245 93 123Q93 80 123 56Q153 32 201 32Z"  horiz-adv-x="500" vert-adv-y="1000"  />

      
      <glyph glyph-name="unie2" unicode="&#xe2;" d="M244 638L140 557L121 581L240 681L249 681L366 580L348 557L244 638M251 474Q330 474 375.50 434Q421 394 421 315L421 0L388 0L381 112Q360 55 311 24Q262-7 196-7Q130-7 89.50 28Q49 63 49 122Q49 202 113.50 242Q178 282 280 282Q337 282 379 276L379 317Q379 376 344 405.50Q309 435 247 435Q172 435 87 394L72 431Q161 474 251 474M201 32Q282 32 329.50 88Q377 144 379 240Q329 245 284 245Q93 245 93 123Q93 80 123 56Q153 32 201 32Z"  horiz-adv-x="500" vert-adv-y="1000"  />

      
      <glyph glyph-name="unie3" unicode="&#xe3;" d="M191 621Q160 621 150 582L119 598Q140 660 187 660Q215 660 253 638Q283 619 301 619Q328 619 340 658L371 642Q351 581 303 581Q277 581 241 602Q209 621 191 621M251 474Q330 474 375.50 434Q421 394 421 315L421 0L388 0L381 112Q360 55 311 24Q262-7 196-7Q130-7 89.50 28Q49 63 49 122Q49 202 113.50 242Q178 282 280 282Q337 282 379 276L379 317Q379 376 344 405.50Q309 435 247 435Q172 435 87 394L72 431Q161 474 251 474M201 32Q282 32 329.50 88Q377 144 379 240Q329 245 284 245Q93 245 93 123Q93 80 123 56Q153 32 201 32Z"  horiz-adv-x="500" vert-adv-y="1000"  />

      
      <glyph glyph-name="unie4" unicode="&#xe4;" d="M176 605Q176 605 171.50 600Q167 595 152 595Q137 595 128 604.50Q119 614 119 628Q119 641 128 651Q137 661 152 661Q166 661 175.50 651Q185 641 185 628Q185 615 176 605M337 595Q322 595 313 605Q304 615 304 628Q304 641 313 651Q322 661 337 661Q352 661 361 651Q370 641 370 628Q370 615 360.50 605Q351 595 337 595M251 474Q330 474 375.50 434Q421 394 421 315L421 0L388 0L381 112Q360 55 311 24Q262-7 196-7Q130-7 89.50 28Q49 63 49 122Q49 202 113.50 242Q178 282 280 282Q337 282 379 276L379 317Q379 376 344 405.50Q309 435 247 435Q172 435 87 394L72 431Q161 474 251 474M201 32Q282 32 329.50 88Q377 144 379 240Q329 245 284 245Q93 245 93 123Q93 80 123 56Q153 32 201 32Z"  horiz-adv-x="500" vert-adv-y="1000"  />

      
      <glyph glyph-name="unie5" unicode="&#xe5;" d="M244 531Q202 531 173 556Q144 581 144 623Q144 665 172.50 690Q201 715 243 715Q285 715 313.50 690Q342 665 342 623Q342 581 313.50 556Q285 531 244 531M289.50 668Q289.50 668 280.25 676.50Q271 685 243 685Q215 685 196.50 668Q178 651 178 623Q178 595 197 578Q216 561 244 561Q271 561 289.50 578Q308 595 308 623Q308 651 289.50 668M251 474Q330 474 375.50 434Q421 394 421 315L421 0L388 0L381 112Q360 55 311 24Q262-7 196-7Q130-7 89.50 28Q49 63 49 122Q49 202 113.50 242Q178 282 280 282Q337 282 379 276L379 317Q379 376 344 405.50Q309 435 247 435Q172 435 87 394L72 431Q161 474 251 474M201 32Q282 32 329.50 88Q377 144 379 240Q329 245 284 245Q93 245 93 123Q93 80 123 56Q153 32 201 32Z"  horiz-adv-x="500" vert-adv-y="1000"  />

      
      <glyph glyph-name="unie6" unicode="&#xe6;" d="M580 474Q670 474 720.50 412Q771 350 771 256Q771 236 770 226L406 226Q411 135 457 83Q503 31 581 31Q662 31 723 92L747 63Q678-8 582-8Q509-8 459 29Q409 66 388 131Q341-7 197-7Q132-7 90.50 28.50Q49 64 49 124Q49 200 114 238Q179 276 278 276Q316 276 367 268L367 318Q367 378 333 406.50Q299 435 242 435Q168 435 86 394L72 431Q160 474 245 474Q307 474 347 445Q387 416 396 357Q444 474 580 474M729 264Q730 340 689 387.50Q648 435 578 435Q504 435 458.50 388Q413 341 407 264L729 264M200 33Q276 33 321.50 86Q367 139 367 230Q328 238 280 238Q199 238 146 210.50Q93 183 93 124Q93 82 122.50 57.50Q152 33 200 33Z"  horiz-adv-x="816" vert-adv-y="1000"  />

      
      <glyph glyph-name="unie7" unicode="&#xe7;" d="M281-53Q325-56 350.50-77.50Q376-99 376-129Q376-163 349.50-185.50Q323-208 276-208Q229-208 186-182L201-154Q234-175 274-175Q305-175 322-162.50Q339-150 339-130Q339-103 310.50-88.50Q282-74 235-76L264-8Q173-1 112.50 65Q52 131 52 235Q52 346 120.50 412Q189 478 287 478Q382 478 453 413L428 383Q367 438 288 438Q203 438 148.50 381Q94 324 94 235Q94 144 148.50 87Q203 30 286 30Q374 30 436 91L460 61Q390-4 301-9L281-53Z"  horiz-adv-x="488" vert-adv-y="1000"  />

      
      <glyph glyph-name="unie8" unicode="&#xe8;" d="M321 570L182 674L210 707L342 594L321 570M283 479Q382 479 437 416.50Q492 354 492 254Q492 241 490 215L95 215Q100 130 155 79.50Q210 29 286 29Q382 29 443 93L468 63Q393-10 288-10Q183-10 117.50 58.50Q52 127 52 235Q52 337 116 408Q180 479 283 479M283 439Q205 439 153 387Q101 335 95 253L450 253Q451 338 407 388.50Q363 439 283 439Z"  horiz-adv-x="537" vert-adv-y="1000"  />

      
      <glyph glyph-name="unie9" unicode="&#xe9;" d="M353 675L215 570L194 594L326 707L353 675M283 479Q382 479 437 416.50Q492 354 492 254Q492 241 490 215L95 215Q101 130 155.50 79.50Q210 29 286 29Q382 29 443 93L468 63Q393-10 288-10Q183-10 117.50 58.50Q52 127 52 235Q52 337 116 408Q180 479 283 479M283 439Q205 439 153 387Q101 335 95 253L450 253Q451 338 407 388.50Q363 439 283 439Z"  horiz-adv-x="537" vert-adv-y="1000"  />

      
      <glyph glyph-name="uniea" unicode="&#xea;" d="M274 638L170 557L151 581L270 681L279 681L396 580L378 557L274 638M283 479Q382 479 437 416.50Q492 354 492 254Q492 241 490 215L95 215Q101 130 155.50 79.50Q210 29 286 29Q382 29 443 93L468 63Q393-10 288-10Q183-10 117.50 58.50Q52 127 52 235Q52 337 116 408Q180 479 283 479M283 439Q205 439 153 387Q101 335 95 253L450 253Q451 338 407 388.50Q363 439 283 439Z"  horiz-adv-x="537" vert-adv-y="1000"  />

      
      <glyph glyph-name="unieb" unicode="&#xeb;" d="M206 605Q206 605 201.50 600Q197 595 182 595Q167 595 158 604.50Q149 614 149 628Q149 641 158 651Q167 661 182 661Q196 661 205.50 651Q215 641 215 628Q215 615 206 605M367 595Q352 595 343 605Q334 615 334 628Q334 641 343 651Q352 661 367 661Q382 661 391 651Q400 641 400 628Q400 615 390.50 605Q381 595 367 595M283 479Q382 479 437 416.50Q492 354 492 254Q492 241 490 215L95 215Q100 130 155 79.50Q210 29 286 29Q382 29 443 93L468 63Q393-10 288-10Q183-10 117.50 58.50Q52 127 52 235Q52 337 116 408Q180 479 283 479M283 439Q205 439 153 387Q101 335 95 253L450 253Q451 338 407 388.50Q363 439 283 439Z"  horiz-adv-x="537" vert-adv-y="1000"  />

      
      <glyph glyph-name="uniec" unicode="&#xec;" d="M153 570L14 674L42 707L174 594L153 570M86 0L86 469L128 469L128 0L86 0Z"  horiz-adv-x="214" vert-adv-y="1000"  />

      
      <glyph glyph-name="unied" unicode="&#xed;" d="M47 574L27 597L158 710L186 678L47 574M86 0L86 469L128 469L128 0L86 0Z"  horiz-adv-x="214" vert-adv-y="1000"  />

      
      <glyph glyph-name="uniee" unicode="&#xee;" d="M3 560L-16 584L102 685L111 685L229 584L211 560L107 641L3 560M86 0L86 469L128 469L128 0L86 0Z"  horiz-adv-x="214" vert-adv-y="1000"  />

      
      <glyph glyph-name="unief" unicode="&#xef;" d="M60 603Q60 603 55.50 598Q51 593 36 593Q21 593 11.50 602.50Q2 612 2 626Q2 641 11.50 651Q21 661 36 661Q51 661 60 651Q69 641 69 627Q69 613 60 603M202 603Q202 603 197.50 598Q193 593 178 593Q163 593 153.50 603Q144 613 144 627Q144 641 153.50 651Q163 661 178 661Q193 661 202 651Q211 641 211 627Q211 613 202 603M86 0L86 469L128 469L128 0L86 0Z"  horiz-adv-x="214" vert-adv-y="1000"  />

      
      <glyph glyph-name="unif0" unicode="&#xf0;" d="M341 613Q496 471 496 248Q496 132 437 61Q378-10 272-10Q178-10 115 51Q52 112 52 221Q52 323 114 388Q176 453 269 453Q385 453 447 352Q413 495 307 589L202 514L178 545L275 615Q214 661 139 687L156 723Q243 691 310 639L383 692L407 661L341 613M271 29Q357 29 405 86Q453 143 453 231Q453 312 401 363Q349 414 271 414Q194 414 144 360Q94 306 94 223Q94 135 141.50 82Q189 29 271 29Z"  horiz-adv-x="553" vert-adv-y="1000"  />

      
      <glyph glyph-name="unif1" unicode="&#xf1;" d="M219 621Q188 621 178 582L147 598Q168 660 215 660Q243 660 281 638Q311 619 329 619Q356 619 368 658L399 642Q379 581 331 581Q305 581 269 602Q237 621 219 621M303 477Q387 477 428 427Q469 377 469 289L469 0L427 0L427 289Q427 437 298 437Q225 437 176.50 385Q128 333 128 248L128 0L86 0L86 469L119 469L128 369Q148 413 193.50 445Q239 477 303 477Z"  horiz-adv-x="548" vert-adv-y="1000"  />

      
      <glyph glyph-name="unif2" unicode="&#xf2;" d="M337 570L198 674L226 707L358 594L337 570M463 59Q463 59 429.50 24.50Q396-10 291-10Q186-10 119 58.50Q52 127 52 235Q52 342 119 410.50Q186 479 291 479Q396 479 463 410.50Q530 342 530 235Q530 128 463 59M291 30Q377 30 432.50 87Q488 144 488 235Q488 325 433 382Q378 439 291 439Q204 439 149 382Q94 325 94 235Q94 144 149 87Q204 30 291 30Z"  horiz-adv-x="582" vert-adv-y="1000"  />

      
      <glyph glyph-name="unif3" unicode="&#xf3;" d="M231 570L210 594L342 707L369 675L231 570M463 59Q463 59 429.50 24.50Q396-10 291-10Q186-10 119 58.50Q52 127 52 235Q52 342 119 410.50Q186 479 291 479Q396 479 463 410.50Q530 342 530 235Q530 128 463 59M291 30Q377 30 432.50 87Q488 144 488 235Q488 325 433 382Q378 439 291 439Q204 439 149 382Q94 325 94 235Q94 144 149 87Q204 30 291 30Z"  horiz-adv-x="582" vert-adv-y="1000"  />

      
      <glyph glyph-name="unif4" unicode="&#xf4;" d="M186 557L167 581L286 681L295 681L412 580L394 557L290 638L186 557M463 59Q463 59 429.50 24.50Q396-10 291-10Q186-10 119 58.50Q52 127 52 235Q52 342 119 410.50Q186 479 291 479Q396 479 463 410.50Q530 342 530 235Q530 128 463 59M291 30Q377 30 432.50 87Q488 144 488 235Q488 325 433 382Q378 439 291 439Q204 439 149 382Q94 325 94 235Q94 144 149 87Q204 30 291 30Z"  horiz-adv-x="582" vert-adv-y="1000"  />

      
      <glyph glyph-name="unif5" unicode="&#xf5;" d="M196 582L165 598Q186 660 233 660Q261 660 299 638Q329 619 347 619Q374 619 386 658L417 642Q397 581 349 581Q323 581 287 602Q255 621 237 621Q206 621 196 582M463 59Q463 59 429.50 24.50Q396-10 291-10Q186-10 119 58.50Q52 127 52 235Q52 342 119 410.50Q186 479 291 479Q396 479 463 410.50Q530 342 530 235Q530 128 463 59M291 30Q377 30 432.50 87Q488 144 488 235Q488 325 433 382Q378 439 291 439Q204 439 149 382Q94 325 94 235Q94 144 149 87Q204 30 291 30Z"  horiz-adv-x="582" vert-adv-y="1000"  />

      
      <glyph glyph-name="unif6" unicode="&#xf6;" d="M222 605Q222 605 217.50 600Q213 595 198 595Q183 595 174 604.50Q165 614 165 628Q165 641 174 651Q183 661 198 661Q212 661 221.50 651Q231 641 231 628Q231 615 222 605M383 595Q368 595 359 605Q350 615 350 628Q350 641 359 651Q368 661 383 661Q398 661 407 651Q416 641 416 628Q416 615 406.50 605Q397 595 383 595M463 59Q463 59 429.50 24.50Q396-10 291-10Q186-10 119 58.50Q52 127 52 235Q52 342 119 410.50Q186 479 291 479Q396 479 463 410.50Q530 342 530 235Q530 128 463 59M291 30Q377 30 432.50 87Q488 144 488 235Q488 325 433 382Q378 439 291 439Q204 439 149 382Q94 325 94 235Q94 144 149 87Q204 30 291 30Z"  horiz-adv-x="582" vert-adv-y="1000"  />

      
      <glyph glyph-name="unif7" unicode="&#xf7;" d="M315 474Q315 474 310 468.50Q305 463 288 463Q271 463 261 473.50Q251 484 251 499Q251 515 261 525.50Q271 536 288 536Q305 536 315 525.50Q325 515 325 499Q325 485 315 474M84 322L84 359L492 359L492 322L84 322M315 155.50Q315 155.50 310 150.25Q305 145 288 145Q271 145 261 155.50Q251 166 251 182Q251 197 261 207.50Q271 218 288 218Q305 218 315 207.50Q325 197 325 182Q325 166 315 155.50Z"  horiz-adv-x="577" vert-adv-y="1000"  />

      
      <glyph glyph-name="unif8" unicode="&#xf8;" d="M443 428Q530 360 530 235Q530 128 463 59Q396-10 291-10Q219-10 166 22L126-37L97-18L138 41Q52 111 52 235Q52 342 119 410.50Q186 479 291 479Q362 479 415 447L455 505L483 486L443 428M94 235Q94 132 162 75L393 413Q349 439 291 439Q204 439 149 382Q94 325 94 235M291 30Q377 30 432.50 87Q488 144 488 235Q488 335 420 395L188 56Q232 30 291 30Z"  horiz-adv-x="582" vert-adv-y="1000"  />

      
      <glyph glyph-name="unif9" unicode="&#xf9;" d="M317 570L178 674L206 707L338 594L317 570M417 469L459 469L459 0L425 0L417 102Q397 57 353 25Q309-7 247-7Q162-7 120.50 44Q79 95 79 182L79 469L121 469L121 182Q121 32 251 32Q323 32 370 88.50Q417 145 417 234L417 469Z"  horiz-adv-x="545" vert-adv-y="1000"  />

      
      <glyph glyph-name="unifa" unicode="&#xfa;" d="M349 675L211 570L190 594L322 707L349 675M417 469L459 469L459 0L425 0L417 101Q397 57 353 25Q309-7 247-7Q162-7 120.50 44Q79 95 79 182L79 469L121 469L121 182Q121 32 251 32Q323 32 370 88.50Q417 145 417 234L417 469Z"  horiz-adv-x="545" vert-adv-y="1000"  />

      
      <glyph glyph-name="unifb" unicode="&#xfb;" d="M271 638L167 557L148 581L267 681L276 681L393 580L375 557L271 638M417 469L459 469L459 0L425 0L417 101Q397 57 353 25Q309-7 247-7Q162-7 120.50 44Q79 95 79 182L79 469L121 469L121 182Q121 32 251 32Q323 32 370 88.50Q417 145 417 234L417 469Z"  horiz-adv-x="545" vert-adv-y="1000"  />

      
      <glyph glyph-name="unifc" unicode="&#xfc;" d="M203 605Q203 605 198.50 600Q194 595 179 595Q164 595 155 604.50Q146 614 146 628Q146 641 155 651Q164 661 179 661Q193 661 202.50 651Q212 641 212 628Q212 615 203 605M364 595Q349 595 340 605Q331 615 331 628Q331 641 340 651Q349 661 364 661Q379 661 388 651Q397 641 397 628Q397 615 387.50 605Q378 595 364 595M417 469L459 469L459 0L425 0L417 102Q397 57 353 25Q309-7 247-7Q162-7 120.50 44Q79 95 79 182L79 469L121 469L121 182Q121 32 251 32Q323 32 370 88.50Q417 145 417 234L417 469Z"  horiz-adv-x="545" vert-adv-y="1000"  />

      
      <glyph glyph-name="unifd" unicode="&#xfd;" d="M321 675L183 570L162 594L294 707L321 675M419 469L463 469L463 467L177-220L133-220L133-218L231 12L20 467L20 469L64 469L220 135Q236 98 252 58Q262 90 281 135L419 469Z"  horiz-adv-x="483" vert-adv-y="1000"  />

      
      <glyph glyph-name="unife" unicode="&#xfe;" d="M324 477Q427 477 491 407Q555 337 555 234Q555 132 491 62Q427-8 324-8Q259-8 206 22.50Q153 53 126 105Q128 35 128-13L128-220L86-220L86 719L128 719L128 469Q128 401 126 362Q153 415 205 446Q257 477 324 477M321 31Q407 31 460 89.50Q513 148 513 234Q513 321 460.50 379Q408 437 321 437Q231 437 178.50 378Q126 319 126 234Q126 150 179 90.50Q232 31 321 31Z"  horiz-adv-x="607" vert-adv-y="1000"  />

      
      <glyph glyph-name="uniff" unicode="&#xff;" d="M175 605Q175 605 170.50 600Q166 595 151 595Q136 595 127 604.50Q118 614 118 628Q118 641 127 651Q136 661 151 661Q165 661 174.50 651Q184 641 184 628Q184 615 175 605M336 595Q321 595 312 605Q303 615 303 628Q303 641 312 651Q321 661 336 661Q351 661 360 651Q369 641 369 628Q369 615 359.50 605Q350 595 336 595M419 469L463 469L463 467L177-220L133-220L133-218L231 13L20 467L20 469L64 469L220 135Q240 89 252 58Q262 90 281 135L419 469Z"  horiz-adv-x="483" vert-adv-y="1000"  />

      
      <glyph glyph-name="uni0100" unicode="&#x0100;" d="M206 801L206 838L469 838L469 801L206 801M346 685L659 2L659 0L612 0L532 175L145 175L65 0L19 0L19 2L331 685L346 685M339 605Q331 584 315 548L164 216L513 216L362 548Q355 562 339 605Z"  horiz-adv-x="677" vert-adv-y="1000"  />

      
      <glyph glyph-name="uni0101" unicode="&#x0101;" d="M374 633L374 596L116 596L116 633L374 633M251 474Q330 474 375.50 434Q421 394 421 315L421 0L388 0L381 112Q360 55 311 24Q262-7 196-7Q130-7 89.50 28Q49 63 49 122Q49 202 113.50 242Q178 282 280 282Q337 282 379 276L379 317Q379 376 344 405.50Q309 435 247 435Q172 435 87 394L72 431Q161 474 251 474M201 32Q282 32 329.50 88Q377 144 379 240Q329 245 284 245Q93 245 93 123Q93 80 123 56Q153 32 201 32Z"  horiz-adv-x="500" vert-adv-y="1000"  />

      
      <glyph glyph-name="uni0102" unicode="&#x0102;" d="M419.50 788Q419.50 788 402.75 774.50Q386 761 340 761Q294 761 260.50 788Q227 815 217 862L249 870Q256 836 282 817Q308 798 342 798Q374 798 399 817.50Q424 837 431 870L463 862Q453 815 419.50 788M346 685L659 2L659 0L612 0L532 175L145 175L65 0L19 0L19 2L331 685L346 685M339 605Q331 584 315 548L164 216L513 216L362 548Q355 562 339 605Z"  horiz-adv-x="677" vert-adv-y="1000"  />

      
      <glyph glyph-name="uni0103" unicode="&#x0103;" d="M323 583.50Q323 583.50 306.50 570.25Q290 557 246 557Q202 557 169 583.50Q136 610 126 657L159 665Q166 632 191 613Q216 594 248 594Q278 594 302 613.50Q326 633 333 665L366 657Q356 610 323 583.50M251 474Q330 474 375.50 434Q421 394 421 315L421 0L388 0L381 112Q360 55 311 24Q262-7 196-7Q130-7 89.50 28Q49 63 49 122Q49 202 113.50 242Q178 282 280 282Q337 282 379 276L379 317Q379 376 344 405.50Q309 435 247 435Q172 435 87 394L72 431Q161 474 251 474M201 32Q282 32 329.50 88Q377 144 379 240Q329 245 284 245Q93 245 93 123Q93 80 123 56Q153 32 201 32Z"  horiz-adv-x="500" vert-adv-y="1000"  />

      
      <glyph glyph-name="uni0104" unicode="&#x0104;" d="M665-156L680-191Q645-214 604-214Q563-214 541.50-194Q520-174 520-141Q520-79 611 2L532 175L145 175L65 0L19 0L19 2L331 685L346 685L659 2L659 0L658 0Q563-81 563-134Q563-175 611-175Q641-175 665-156M164 216L513 216L362 548Q355 562 339 605Q331 584 315 548L164 216Z"  horiz-adv-x="677" vert-adv-y="1000"  />

      
      <glyph glyph-name="uni0105" unicode="&#x0105;" d="M427-156L442-189Q406-212 366-212Q326-212 304.50-192Q283-172 283-141Q283-77 387 15L381 112Q360 55 311 24Q262-7 196-7Q130-7 89.50 28Q49 63 49 122Q49 202 113.50 242Q178 282 280 282Q337 282 379 276L379 317Q379 376 344 405.50Q309 435 247 435Q172 435 87 394L72 431Q161 474 251 474Q330 474 375.50 434Q421 394 421 315L421 0L420 0Q325-81 325-134Q325-175 373-175Q403-175 427-156M201 32Q282 32 329.50 88Q377 144 379 240Q329 245 284 245Q93 245 93 123Q93 80 123 56Q153 32 201 32Z"  horiz-adv-x="500" vert-adv-y="1000"  />

      
      <glyph glyph-name="uni0106" unicode="&#x0106;" d="M351 775L330 798L462 911L489 879L351 775M409-11Q259-11 162.50 91Q66 193 66 341Q66 489 162.50 590Q259 691 409 691Q561 691 668 579L641 551Q547 650 409 650Q279 650 194.50 561.50Q110 473 110 341Q110 210 194.50 120Q279 30 409 30Q552 30 649 149L680 123Q573-11 409-11Z"  horiz-adv-x="713" vert-adv-y="1000"  />

      
      <glyph glyph-name="uni0107" unicode="&#x0107;" d="M226 570L205 594L337 707L364 675L226 570M284-9Q186-9 119 58.50Q52 126 52 235Q52 346 120.50 412Q189 478 287 478Q382 478 453 413L428 383Q367 438 288 438Q203 438 148.50 381Q94 324 94 235Q94 144 148.50 87Q203 30 286 30Q374 30 436 91L460 61Q422 25 382 8Q342-9 284-9Z"  horiz-adv-x="488" vert-adv-y="1000"  />

      
      <glyph glyph-name="uni0108" unicode="&#x0108;" d="M300 762L281 786L406 886L415 886L539 785L521 762L410 843L300 762M409-11Q259-11 162.50 91Q66 193 66 341Q66 489 162.50 590Q259 691 409 691Q561 691 668 579L641 551Q547 650 409 650Q279 650 194.50 561.50Q110 473 110 341Q110 210 194.50 120Q279 30 409 30Q552 30 649 149L680 123Q573-11 409-11Z"  horiz-adv-x="713" vert-adv-y="1000"  />

      
      <glyph glyph-name="uni0109" unicode="&#x0109;" d="M181 557L162 581L281 681L290 681L407 580L389 557L285 638L181 557M284-9Q186-9 119 58.50Q52 126 52 235Q52 346 120.50 412Q189 478 287 478Q382 478 453 413L428 383Q367 438 288 438Q203 438 148.50 381Q94 324 94 235Q94 144 148.50 87Q203 30 286 30Q374 30 436 91L460 61Q422 25 382 8Q342-9 284-9Z"  horiz-adv-x="488" vert-adv-y="1000"  />

      
      <glyph glyph-name="uni010A" unicode="&#x010A;" d="M411 791Q394 791 384 801.50Q374 812 374 827Q374 842 384 853Q394 864 411 864Q428 864 438 853Q448 842 448 827Q448 812 437.50 801.50Q427 791 411 791M409-11Q259-11 162.50 91Q66 193 66 341Q66 489 162.50 590Q259 691 409 691Q561 691 668 579L641 551Q547 650 409 650Q279 650 194.50 561.50Q110 473 110 341Q110 210 194.50 120Q279 30 409 30Q552 30 649 149L680 123Q573-11 409-11Z"  horiz-adv-x="713" vert-adv-y="1000"  />

      
      <glyph glyph-name="uni010B" unicode="&#x010B;" d="M286 590Q269 590 259 600.50Q249 611 249 626Q249 642 259 652.50Q269 663 286 663Q302 663 312.50 652.50Q323 642 323 626Q323 611 312.50 600.50Q302 590 286 590M284-9Q186-9 119 58.50Q52 126 52 235Q52 346 120.50 412Q189 478 287 478Q382 478 453 413L428 383Q367 438 288 438Q203 438 148.50 381Q94 324 94 235Q94 144 148.50 87Q203 30 286 30Q374 30 436 91L460 61Q422 25 382 8Q342-9 284-9Z"  horiz-adv-x="488" vert-adv-y="1000"  />

      
      <glyph glyph-name="uni010C" unicode="&#x010C;" d="M406 764L283 865L300 888L411 807L521 888L540 864L415 764L406 764M409-11Q259-11 162.50 91Q66 193 66 341Q66 489 162.50 590Q259 691 409 691Q561 691 668 579L641 551Q547 650 409 650Q279 650 194.50 561.50Q110 473 110 341Q110 210 194.50 120Q279 30 409 30Q552 30 649 149L680 123Q573-11 409-11Z"  horiz-adv-x="713" vert-adv-y="1000"  />

      
      <glyph glyph-name="uni010D" unicode="&#x010D;" d="M280 560L163 660L181 684L285 603L389 684L408 660L289 560L280 560M284-9Q186-9 119 58.50Q52 126 52 235Q52 346 120.50 412Q189 478 287 478Q382 478 453 413L428 383Q367 438 288 438Q203 438 148.50 381Q94 324 94 235Q94 144 148.50 87Q203 30 286 30Q374 30 436 91L460 61Q422 25 382 8Q342-9 284-9Z"  horiz-adv-x="488" vert-adv-y="1000"  />

      
      <glyph glyph-name="uni010E" unicode="&#x010E;" d="M331 764L208 865L225 888L336 807L446 888L465 864L340 764L331 764M110 0L110 680L316 680Q470 680 566.50 584Q663 488 663 339Q663 190 567.50 95Q472 0 317 0L110 0M154 41L317 41Q452 41 535.50 125Q619 209 619 339Q619 469 535 554Q451 639 316 639L154 639L154 41Z"  horiz-adv-x="729" vert-adv-y="1000"  />

      
      <glyph glyph-name="uni010F" unicode="&#x010F;" d="M480 469L480 719L522 719L522 0L489 0L483 106Q455 53 403 22.50Q351-8 285-8Q182-8 117 60.50Q52 129 52 235Q52 339 117.50 408Q183 477 285 477Q350 477 401.50 447Q453 417 482 363Q480 435 480 469M606 719L651 719Q645 632 617 562L584 562Q605 644 606 719M287 32Q374 32 427.50 89.50Q481 147 481 235Q481 322 427 379.50Q373 437 287 437Q201 437 147.50 380Q94 323 94 235Q94 147 148 89.50Q202 32 287 32Z"  horiz-adv-x="609" vert-adv-y="1000"  />

      
      <glyph glyph-name="uni0110" unicode="&#x0110;" d="M317 680Q471 680 567.50 584Q664 488 664 339Q664 190 568.50 95Q473 0 318 0L111 0L111 328L33 328L33 363L111 363L111 680L317 680M318 41Q454 41 537 124.50Q620 208 620 339Q620 469 536 554Q452 639 317 639L155 639L155 363L351 363L351 328L155 328L155 41L318 41Z"  horiz-adv-x="730" vert-adv-y="1000"  />

      
      <glyph glyph-name="uni0111" unicode="&#x0111;" d="M597 603L597 569L522 569L522 0L489 0L483 105Q456 53 403.50 22.50Q351-8 285-8Q182-8 117 60.50Q52 129 52 235Q52 339 117.50 408Q183 477 285 477Q351 477 402.50 447Q454 417 482 363Q480 437 480 469L480 569L315 569L315 603L480 603L480 719L522 719L522 603L597 603M287 32Q374 32 427.50 89.50Q481 147 481 235Q481 322 427 379.50Q373 437 287 437Q201 437 147.50 380Q94 323 94 235Q94 147 148 89.50Q202 32 287 32Z"  horiz-adv-x="608" vert-adv-y="1000"  />

      
      <glyph glyph-name="uni0112" unicode="&#x0112;" d="M175 801L175 838L438 838L438 801L175 801M154 41L513 41L513 0L110 0L110 680L504 680L504 639L154 639L154 371L459 371L459 330L154 330L154 41Z"  horiz-adv-x="560" vert-adv-y="1000"  />

      
      <glyph glyph-name="uni0113" unicode="&#x0113;" d="M146 596L146 633L404 633L404 596L146 596M283 479Q382 479 437 416.50Q492 354 492 254Q492 241 490 215L95 215Q100 130 155 79.50Q210 29 286 29Q382 29 443 93L468 63Q393-10 288-10Q183-10 117.50 58.50Q52 127 52 235Q52 337 116 408Q180 479 283 479M283 439Q205 439 153 387Q101 335 95 253L450 253Q451 338 407 388.50Q363 439 283 439Z"  horiz-adv-x="537" vert-adv-y="1000"  />

      
      <glyph glyph-name="uni0114" unicode="&#x0114;" d="M388.50 788Q388.50 788 371.75 774.50Q355 761 309 761Q263 761 229.50 788Q196 815 186 862L218 870Q225 836 251 817Q277 798 311 798Q343 798 368 817.50Q393 837 400 870L432 862Q422 815 388.50 788M154 41L513 41L513 0L110 0L110 680L504 680L504 639L154 639L154 371L459 371L459 330L154 330L154 41Z"  horiz-adv-x="560" vert-adv-y="1000"  />

      
      <glyph glyph-name="uni0115" unicode="&#x0115;" d="M353 583.50Q353 583.50 336.50 570.25Q320 557 276 557Q232 557 199 583.50Q166 610 156 657L189 665Q196 632 221 613Q246 594 278 594Q308 594 332 613.50Q356 633 363 665L396 657Q386 610 353 583.50M283 479Q382 479 437 416.50Q492 354 492 254Q492 241 490 215L95 215Q101 130 155.50 79.50Q210 29 286 29Q382 29 443 93L468 63Q393-10 288-10Q183-10 117.50 58.50Q52 127 52 235Q52 337 116 408Q180 479 283 479M283 439Q205 439 153 387Q101 335 95 253L450 253Q451 338 407 388.50Q363 439 283 439Z"  horiz-adv-x="537" vert-adv-y="1000"  />

      
      <glyph glyph-name="uni0116" unicode="&#x0116;" d="M308 791Q291 791 281 801.50Q271 812 271 827Q271 842 281 853Q291 864 308 864Q325 864 335 853Q345 842 345 827Q345 812 334.50 801.50Q324 791 308 791M154 41L513 41L513 0L110 0L110 680L504 680L504 639L154 639L154 371L459 371L459 330L154 330L154 41Z"  horiz-adv-x="560" vert-adv-y="1000"  />

      
      <glyph glyph-name="uni0117" unicode="&#x0117;" d="M275 590Q258 590 248 600.50Q238 611 238 626Q238 642 248 652.50Q258 663 275 663Q291 663 301.50 652.50Q312 642 312 626Q312 611 301.50 600.50Q291 590 275 590M283 479Q382 479 437 416.50Q492 354 492 254Q492 241 490 215L95 215Q100 130 155 79.50Q210 29 286 29Q382 29 443 93L468 63Q393-10 288-10Q183-10 117.50 58.50Q52 127 52 235Q52 337 116 408Q180 479 283 479M283 439Q205 439 153 387Q101 335 95 253L450 253Q451 338 407 388.50Q363 439 283 439Z"  horiz-adv-x="537" vert-adv-y="1000"  />

      
      <glyph glyph-name="uni0118" unicode="&#x0118;" d="M510-156L525-191Q489-214 449-214Q408-214 386.50-194Q365-174 365-141Q365-79 462 0L110 0L110 680L504 680L504 639L154 639L154 371L459 371L459 330L154 330L154 41L513 41L513 0Q408-80 408-134Q408-175 456-175Q486-175 510-156Z"  horiz-adv-x="560" vert-adv-y="1000"  />

      
      <glyph glyph-name="uni0119" unicode="&#x0119;" d="M281 479Q381 479 436 417Q491 355 491 255Q491 241 489 215L95 215Q101 130 156 80Q211 30 289 30Q383 30 442 93L466 63L464 61L466 62Q387-17 355.50-60.50Q324-104 324-134Q324-175 371-175Q402-175 426-156L440-189Q406-212 365-212Q324-212 303-192.50Q282-173 282-141Q282-83 370 2Q334-10 289-10Q182-10 117 58Q52 126 52 235Q52 337 115 408Q178 479 281 479M281 439Q204 439 152.50 386.50Q101 334 95 253L449 253Q451 338 407 388.50Q363 439 281 439Z"  horiz-adv-x="536" vert-adv-y="1000"  />

      
      <glyph glyph-name="uni011A" unicode="&#x011A;" d="M303 764L180 865L197 888L308 807L418 888L437 864L312 764L303 764M154 41L513 41L513 0L110 0L110 680L504 680L504 639L154 639L154 371L459 371L459 330L154 330L154 41Z"  horiz-adv-x="560" vert-adv-y="1000"  />

      
      <glyph glyph-name="uni011B" unicode="&#x011B;" d="M279 560L270 560L153 660L171 684L275 603L379 684L398 660L279 560M283 479Q382 479 437 416.50Q492 354 492 254Q492 241 490 215L95 215Q101 130 155.50 79.50Q210 29 286 29Q382 29 443 93L468 63Q393-10 288-10Q183-10 117.50 58.50Q52 127 52 235Q52 337 116 408Q180 479 283 479M283 439Q205 439 153 387Q101 335 95 253L450 253Q451 338 407 388.50Q363 439 283 439Z"  horiz-adv-x="537" vert-adv-y="1000"  />

      
      <glyph glyph-name="uni011C" unicode="&#x011C;" d="M301 762L282 786L407 886L416 886L540 785L522 762L411 843L301 762M405 352L683 352L683 120Q590-11 413-11Q260-11 163 90Q66 191 66 341Q66 489 161.50 590Q257 691 411 691Q564 691 667 571L637 544Q543 650 411 650Q278 650 194 562Q110 474 110 341Q110 206 195 118Q280 30 415 30Q561 30 641 133L641 311L405 311L405 352Z"  horiz-adv-x="743" vert-adv-y="1000"  />

      
      <glyph glyph-name="uni011D" unicode="&#x011D;" d="M287 638L183 557L164 581L283 681L292 681L409 580L391 557L287 638M489 469L522 469L522-18Q522-119 457-174.50Q392-230 294-230Q173-230 88-148L113-118Q190-190 293-190Q373-190 426.50-146.50Q480-103 480-18Q480 32 482 104Q452 52 400 22.50Q348-7 284-7Q180-7 116 63.50Q52 134 52 235Q52 337 115 407Q178 477 283 477Q349 477 401 447Q453 417 481 365L489 469M285 33Q376 33 428.50 92Q481 151 481 235Q481 319 429 378Q377 437 286 437Q199 437 146.50 378.50Q94 320 94 235Q94 150 146.50 91.50Q199 33 285 33Z"  horiz-adv-x="608" vert-adv-y="1000"  />

      
      <glyph glyph-name="uni011E" unicode="&#x011E;" d="M491.50 788Q491.50 788 474.75 774.50Q458 761 412 761Q366 761 332.50 788Q299 815 289 862L321 870Q328 836 354 817Q380 798 414 798Q446 798 471 817.50Q496 837 503 870L535 862Q525 815 491.50 788M405 352L683 352L683 120Q590-11 413-11Q260-11 163 90Q66 191 66 341Q66 489 161.50 590Q257 691 411 691Q564 691 667 571L637 544Q543 650 411 650Q278 650 194 562Q110 474 110 341Q110 206 195 118Q280 30 415 30Q561 30 641 133L641 311L405 311L405 352Z"  horiz-adv-x="743" vert-adv-y="1000"  />

      
      <glyph glyph-name="uni011F" unicode="&#x011F;" d="M366 583.50Q366 583.50 349.50 570.25Q333 557 289 557Q245 557 212 583.50Q179 610 169 657L202 665Q209 632 234 613Q259 594 291 594Q321 594 345 613.50Q369 633 376 665L409 657Q399 610 366 583.50M489 469L522 469L522-18Q522-119 457-174.50Q392-230 294-230Q173-230 88-148L113-118Q190-190 293-190Q373-190 426.50-146.50Q480-103 480-18Q480 32 482 104Q452 52 400 22.50Q348-7 284-7Q180-7 116 63.50Q52 134 52 235Q52 337 115 407Q178 477 283 477Q349 477 401 447Q453 417 481 365L489 469M285 33Q376 33 428.50 92Q481 151 481 235Q481 319 429 378Q377 437 286 437Q199 437 146.50 378.50Q94 320 94 235Q94 150 146.50 91.50Q199 33 285 33Z"  horiz-adv-x="608" vert-adv-y="1000"  />

      
      <glyph glyph-name="uni0120" unicode="&#x0120;" d="M412 791Q395 791 385 801.50Q375 812 375 827Q375 842 385 853Q395 864 412 864Q429 864 439 853Q449 842 449 827Q449 812 438.50 801.50Q428 791 412 791M405 352L683 352L683 120Q590-11 413-11Q260-11 163 90Q66 191 66 341Q66 489 161.50 590Q257 691 411 691Q564 691 667 571L637 544Q543 650 411 650Q278 650 194 562Q110 474 110 341Q110 206 195 118Q280 30 415 30Q561 30 641 133L641 311L405 311L405 352Z"  horiz-adv-x="743" vert-adv-y="1000"  />

      
      <glyph glyph-name="uni0121" unicode="&#x0121;" d="M288 590Q271 590 261 600.50Q251 611 251 626Q251 642 261 652.50Q271 663 288 663Q304 663 314.50 652.50Q325 642 325 626Q325 611 314.50 600.50Q304 590 288 590M489 469L522 469L522-18Q522-119 457-174.50Q392-230 294-230Q173-230 88-148L113-118Q190-190 293-190Q373-190 426.50-146.50Q480-103 480-18Q480 68 482 104Q453 52 400.50 22.50Q348-7 284-7Q180-7 116 63.50Q52 134 52 235Q52 337 115 407Q178 477 283 477Q349 477 401 447Q453 417 481 365L489 469M285 33Q376 33 428.50 92Q481 151 481 235Q481 319 429 378Q377 437 286 437Q199 437 146.50 378.50Q94 320 94 235Q94 150 146.50 91.50Q199 33 285 33Z"  horiz-adv-x="608" vert-adv-y="1000"  />

      
      <glyph glyph-name="uni0122" unicode="&#x0122;" d="M405 352L683 352L683 120Q590-11 413-11Q260-11 163 90Q66 191 66 341Q66 489 161.50 590Q257 691 411 691Q564 691 667 571L637 544Q543 650 411 650Q278 650 194 562Q110 474 110 341Q110 206 195 118Q280 30 415 30Q561 30 641 133L641 311L405 311L405 352M371-266Q400-192 403-104L448-104Q438-202 405-266L371-266Z"  horiz-adv-x="743" vert-adv-y="1000"  />

      
      <glyph glyph-name="uni0123" unicode="&#x0123;" d="M339 736Q303 654 303 574L258 574Q265 665 305 736L339 736M489 469L522 469L522-18Q522-119 457-174.50Q392-230 294-230Q173-230 88-148L113-118Q190-190 293-190Q373-190 426.50-146.50Q480-103 480-18Q480 32 482 104Q452 52 400 22.50Q348-7 284-7Q180-7 116 63.50Q52 134 52 235Q52 337 115 407Q178 477 283 477Q349 477 401 447Q453 417 481 365L489 469M285 33Q376 33 428.50 92Q481 151 481 235Q481 319 429 378Q377 437 286 437Q199 437 146.50 378.50Q94 320 94 235Q94 150 146.50 91.50Q199 33 285 33Z"  horiz-adv-x="608" vert-adv-y="1000"  />

      
      <glyph glyph-name="uni0124" unicode="&#x0124;" d="M264 762L245 786L370 886L379 886L503 785L485 762L374 843L264 762M110 0L110 680L154 680L154 364L596 364L596 680L640 680L640 0L596 0L596 323L154 323L154 0L110 0Z"  horiz-adv-x="750" vert-adv-y="1000"  />

      
      <glyph glyph-name="uni0125" unicode="&#x0125;" d="M217 801L106 882L-4 801L-23 825L102 925L111 925L235 824L217 801M302 477Q385 477 427 427Q469 377 469 287L469 0L427 0L427 288Q427 437 297 437Q222 437 175 380Q128 323 128 234L128 0L86 0L86 719L128 719L128 430Q128 387 127 363Q147 411 192 444Q237 477 302 477Z"  horiz-adv-x="548" vert-adv-y="1000"  />

      
      <glyph glyph-name="uni0126" unicode="&#x0126;" d="M701 553L701 521L640 521L640 0L596 0L596 323L154 323L154 0L110 0L110 521L49 521L49 553L110 553L110 680L154 680L154 553L596 553L596 680L640 680L640 553L701 553M596 364L596 521L154 521L154 364L596 364Z"  horiz-adv-x="750" vert-adv-y="1000"  />

      
      <glyph glyph-name="uni0127" unicode="&#x0127;" d="M303 475Q385 475 427 424.50Q469 374 469 288L469 0L427 0L427 291Q427 435 297 435Q222 435 175 378Q128 321 128 232L128 0L86 0L86 569L7 569L7 603L86 603L86 719L128 719L128 603L317 603L317 569L128 569L128 429Q128 386 127 363Q148 410 192.50 442.50Q237 475 303 475Z"  horiz-adv-x="548" vert-adv-y="1000"  />

      
      <glyph glyph-name="uni0128" unicode="&#x0128;" d="M34 786L2 803Q23 865 71 865Q103 865 140 842Q173 824 190 824Q220 824 230 863L262 847Q241 785 193 785Q164 785 128 806Q97 825 76 825Q44 825 34 786M110 0L110 680L154 680L154 0L110 0Z"  horiz-adv-x="264" vert-adv-y="1000"  />

      
      <glyph glyph-name="uni0129" unicode="&#x0129;" d="M12 585L-19 602Q2 664 49 664Q74 664 115 642Q145 623 163 623Q191 623 202 662L233 646Q212 584 165 584Q141 584 103 606Q71 625 53 625Q22 625 12 585M86 0L86 469L128 469L128 0L86 0Z"  horiz-adv-x="214" vert-adv-y="1000"  />

      
      <glyph glyph-name="uni012A" unicode="&#x012A;" d="M-1 801L-1 838L262 838L262 801L-1 801M110 0L110 680L154 680L154 0L110 0Z"  horiz-adv-x="264" vert-adv-y="1000"  />

      
      <glyph glyph-name="uni012B" unicode="&#x012B;" d="M6 596L6 633L206 633L206 596L6 596M86 0L86 469L128 469L128 0L86 0Z"  horiz-adv-x="214" vert-adv-y="1000"  />

      
      <glyph glyph-name="uni012C" unicode="&#x012C;" d="M212.50 788Q212.50 788 195.75 774.50Q179 761 133 761Q87 761 53.50 788Q20 815 10 862L42 870Q49 836 75 817Q101 798 135 798Q167 798 192 817.50Q217 837 224 870L256 862Q246 815 212.50 788M110 0L110 680L154 680L154 0L110 0Z"  horiz-adv-x="264" vert-adv-y="1000"  />

      
      <glyph glyph-name="uni012D" unicode="&#x012D;" d="M185 583.50Q185 583.50 168.50 570.25Q152 557 108 557Q64 557 31 583.50Q-2 610-12 657L21 665Q28 632 53 613Q78 594 110 594Q140 594 164 613.50Q188 633 195 665L228 657Q218 610 185 583.50M86 0L86 469L128 469L128 0L86 0Z"  horiz-adv-x="214" vert-adv-y="1000"  />

      
      <glyph glyph-name="uni012E" unicode="&#x012E;" d="M194-156L208-191Q173-214 133-214Q92-214 69.50-193Q47-172 47-138Q47-78 110 6L110 680L154 680L154 0Q92-79 92-132Q92-151 104-163Q116-175 139-175Q170-175 194-156Z"  horiz-adv-x="264" vert-adv-y="1000"  />

      
      <glyph glyph-name="uni012F" unicode="&#x012F;" d="M131.50 602.50Q131.50 602.50 126.75 597.75Q122 593 107 593Q92 593 82.50 602.50Q73 612 73 626Q73 641 82.50 651Q92 661 107 661Q122 661 131.50 651Q141 641 141 626Q141 612 131.50 602.50M172-156L186-189Q152-212 110-212Q70-212 49-192.50Q28-173 28-139Q28-81 86 1L86 469L128 469L128 0Q69-80 69-131Q69-175 117-175Q148-175 172-156Z"  horiz-adv-x="214" vert-adv-y="1000"  />

      
      <glyph glyph-name="uni0130" unicode="&#x0130;" d="M133 791Q116 791 106 801.50Q96 812 96 827Q96 842 106 853Q116 864 133 864Q150 864 160 853Q170 842 170 827Q170 812 159.50 801.50Q149 791 133 791M110 0L110 680L154 680L154 0L110 0Z"  horiz-adv-x="264" vert-adv-y="1000"  />

      
      <glyph glyph-name="uni0131" unicode="&#x0131;" d="M86 0L86 469L128 469L128 0L86 0Z"  horiz-adv-x="214" vert-adv-y="1000"  />

      
      <glyph glyph-name="uni0132" unicode="&#x0132;" d="M110 0L110 680L154 680L154 0L110 0M478-11Q378-11 293 54L317 89Q390 30 478 30Q553 30 594.50 75.50Q636 121 636 205L636 680L680 680L680 204Q680 101 627.50 45Q575-11 478-11Z"  horiz-adv-x="783" vert-adv-y="1000"  />

      
      <glyph glyph-name="uni0133" unicode="&#x0133;" d="M348.50 603Q348.50 603 343.75 598.50Q339 594 324 594Q309 594 299.50 603.50Q290 613 290 627Q290 641 299.50 651Q309 661 324 661Q339 661 348.50 651Q358 641 358 626Q358 612 348.50 603M131.50 602.50Q131.50 602.50 126.75 597.75Q122 593 107 593Q92 593 82.50 603Q73 613 73 627Q73 641 82.50 650.50Q92 660 107 660Q122 660 131.50 650.50Q141 641 141 626Q141 612 131.50 602.50M86 0L86 469L128 469L128 0L86 0M187-230L182-192Q250-186 276.50-154Q303-122 303-44L303 469L345 469L345-44Q345-138 311.50-180.50Q278-223 187-230Z"  horiz-adv-x="430" vert-adv-y="1000"  />

      
      <glyph glyph-name="uni0134" unicode="&#x0134;" d="M282 762L263 786L388 886L397 886L521 785L503 762L393 843L282 762M214-11Q114-11 29 54L53 89Q126 30 214 30Q289 30 330.50 75.50Q372 121 372 205L372 680L416 680L416 204Q416 101 363.50 45Q311-11 214-11Z"  horiz-adv-x="518" vert-adv-y="1000"  />

      
      <glyph glyph-name="uni0135" unicode="&#x0135;" d="M5 557L-14 581L105 681L114 681L231 580L213 557L109 638L5 557M-27-230L-32-192Q36-186 62.50-154Q89-122 89-44L89 469L131 469L131-44Q131-138 97.50-180.50Q64-223-27-230Z"  horiz-adv-x="217" vert-adv-y="1000"  />

      
      <glyph glyph-name="uni0136" unicode="&#x0136;" d="M198 343L563 2L563 0L506 0L155 327L154 327L154 0L110 0L110 680L154 680L154 357L155 357L486 680L541 680L541 678L198 343M270-266Q299-192 302-104L347-104Q337-202 304-266L270-266Z"  horiz-adv-x="578" vert-adv-y="1000"  />

      
      <glyph glyph-name="uni0137" unicode="&#x0137;" d="M167 242L433 4L433 0L379 0L128 226L128 0L86 0L86 719L128 719L128 256L360 469L412 469L412 466L167 242M205-266Q234-192 237-104L282-104Q272-202 239-266L205-266Z"  horiz-adv-x="451" vert-adv-y="1000"  />

      
      <glyph glyph-name="uni0138" unicode="&#x0138;" d="M167 242L433 4L433 0L379 0L128 226L128 0L86 0L86 469L128 469L128 256L360 469L412 469L412 466L167 242Z"  horiz-adv-x="451" vert-adv-y="1000"  />

      
      <glyph glyph-name="uni0139" unicode="&#x0139;" d="M86 775L65 798L197 911L224 879L86 775M110 0L110 680L154 680L154 41L488 41L488 0L110 0Z"  horiz-adv-x="522" vert-adv-y="1000"  />

      
      <glyph glyph-name="uni013A" unicode="&#x013A;" d="M49 814L28 837L160 950L187 918L49 814M86 0L86 719L128 719L128 0L86 0Z"  horiz-adv-x="214" vert-adv-y="1000"  />

      
      <glyph glyph-name="uni013B" unicode="&#x013B;" d="M110 0L110 680L154 680L154 41L488 41L488 0L110 0M247-266Q276-192 279-104L324-104Q314-202 281-266L247-266Z"  horiz-adv-x="522" vert-adv-y="1000"  />

      
      <glyph glyph-name="uni013C" unicode="&#x013C;" d="M86 0L86 719L128 719L128 0L86 0M55-266Q84-192 87-104L132-104Q122-202 89-266L55-266Z"  horiz-adv-x="214" vert-adv-y="1000"  />

      
      <glyph glyph-name="uni013D" unicode="&#x013D;" d="M110 0L110 680L154 680L154 41L488 41L488 0L110 0M319 530Q355 607 355 680L400 680Q394 595 353 530L319 530Z"  horiz-adv-x="522" vert-adv-y="1000"  />

      
      <glyph glyph-name="uni013E" unicode="&#x013E;" d="M86 0L86 719L128 719L128 0L86 0M188 562Q210 650 210 719L255 719Q249 633 222 562L188 562Z"  horiz-adv-x="213" vert-adv-y="1000"  />

      
      <glyph glyph-name="uni013F" unicode="&#x013F;" d="M110 0L110 680L154 680L154 41L488 41L488 0L110 0M382 306Q366 306 355 315.50Q344 325 344 343Q344 361 355 371Q366 381 382 381Q397 381 408 371Q419 361 419 343Q419 325 408 315.50Q397 306 382 306Z"  horiz-adv-x="522" vert-adv-y="1000"  />

      
      <glyph glyph-name="uni0140" unicode="&#x0140;" d="M86 0L86 719L128 719L128 0L86 0M253 314Q237 314 226.50 323Q216 332 216 350Q216 368 226.50 377Q237 386 253 386Q268 386 279 377Q290 368 290 350Q290 332 279 323Q268 314 253 314Z"  horiz-adv-x="315" vert-adv-y="1000"  />

      
      <glyph glyph-name="uni0141" unicode="&#x0141;" d="M168 41L502 41L502 0L124 0L124 300L54 276L42 311L124 339L124 680L168 680L168 354L318 405L330 371L168 315L168 41Z"  horiz-adv-x="536" vert-adv-y="1000"  />

      
      <glyph glyph-name="uni0142" unicode="&#x0142;" d="M245 378L152 342L152 0L110 0L110 326L28 295L15 328L110 364L110 719L152 719L152 380L233 410L245 378Z"  horiz-adv-x="260" vert-adv-y="1000"  />

      
      <glyph glyph-name="uni0143" unicode="&#x0143;" d="M473 879L335 775L314 798L446 911L473 879M622 680L666 680L666-5L647-5L191 547Q165 577 153 592Q154 574 154 539L154 0L110 0L110 685L129 685L584 135Q610 105 623 89Q622 110 622 148L622 680Z"  horiz-adv-x="776" vert-adv-y="1000"  />

      
      <glyph glyph-name="uni0144" unicode="&#x0144;" d="M352 675L214 570L193 594L325 707L352 675M303 477Q387 477 428 427Q469 377 469 289L469 0L427 0L427 289Q427 437 298 437Q225 437 176.50 385Q128 333 128 248L128 0L86 0L86 469L119 469L128 369Q148 413 193.50 445Q239 477 303 477Z"  horiz-adv-x="548" vert-adv-y="1000"  />

      
      <glyph glyph-name="uni0145" unicode="&#x0145;" d="M622 680L666 680L666-5L647-5L191 547Q165 577 153 592Q154 574 154 539L154 0L110 0L110 685L129 685L584 135Q610 105 623 89Q622 110 622 148L622 680M335-266Q366-192 367-104L412-104Q403-202 369-266L335-266Z"  horiz-adv-x="776" vert-adv-y="1000"  />

      
      <glyph glyph-name="uni0146" unicode="&#x0146;" d="M303 477Q387 477 428 427Q469 377 469 289L469 0L427 0L427 289Q427 437 298 437Q225 437 176.50 385Q128 333 128 248L128 0L86 0L86 469L119 469L128 369Q148 413 193.50 445Q239 477 303 477M231-266Q260-192 263-104L308-104Q298-202 265-266L231-266Z"  horiz-adv-x="548" vert-adv-y="1000"  />

      
      <glyph glyph-name="uni0147" unicode="&#x0147;" d="M399 764L390 764L266 865L284 888L394 807L505 888L523 864L399 764M622 680L666 680L666-5L647-5L191 547Q165 577 153 592Q154 574 154 539L154 0L110 0L110 685L129 685L584 135Q610 105 623 89Q622 110 622 148L622 680Z"  horiz-adv-x="776" vert-adv-y="1000"  />

      
      <glyph glyph-name="uni0148" unicode="&#x0148;" d="M277 560L268 560L151 660L169 684L273 603L377 684L396 660L277 560M303 477Q387 477 428 427Q469 377 469 289L469 0L427 0L427 289Q427 437 298 437Q225 437 176.50 385Q128 333 128 248L128 0L86 0L86 469L119 469L128 369Q148 413 193.50 445Q239 477 303 477Z"  horiz-adv-x="548" vert-adv-y="1000"  />

      
      <glyph glyph-name="uni0149" unicode="&#x0149;" d="M0 502Q31 580 32 664L77 664Q66 562 34 502L0 502M86 0L86 469L119 469L127 361Q145 408 190 442.50Q235 477 301 477Q386 477 427.50 426.50Q469 376 469 289L469 0L427 0L427 289Q427 437 297 437Q223 437 175.50 380.50Q128 324 128 235L128 0L86 0Z"  horiz-adv-x="548" vert-adv-y="1000"  />

      
      <glyph glyph-name="uni014A" unicode="&#x014A;" d="M622 680L666 680L666-32Q666-122 619-173Q572-224 489-224L483-184Q548-184 585-143.50Q622-103 622-31L622 23L182 556Q168 572 153 591Q154 576 154 549L154 0L110 0L110 685L129 685L588 128Q607 106 623 85Q622 102 622 132L622 680Z"  horiz-adv-x="776" vert-adv-y="1000"  />

      
      <glyph glyph-name="uni014B" unicode="&#x014B;" d="M321-222L316-184Q373-184 400-156Q427-128 427-68L427 289Q427 437 299 437Q225 437 176.50 385Q128 333 128 248L128 0L86 0L86 469L119 469L127 365Q146 410 192 443.50Q238 477 303 477Q386 477 427.50 427Q469 377 469 288L469-68Q469-144 430.50-183Q392-222 321-222Z"  horiz-adv-x="548" vert-adv-y="1000"  />

      
      <glyph glyph-name="uni014C" unicode="&#x014C;" d="M275 801L275 838L538 838L538 801L275 801M408-11Q260-11 163 91Q66 193 66 340Q66 491 162.50 591Q259 691 408 691Q558 691 654 591Q750 491 750 340Q750 192 653.50 90.50Q557-11 408-11M408 30Q538 30 622 119.50Q706 209 706 340Q706 474 622.50 562Q539 650 408 650Q277 650 193.50 562Q110 474 110 340Q110 209 194.50 119.50Q279 30 408 30Z"  horiz-adv-x="816" vert-adv-y="1000"  />

      
      <glyph glyph-name="uni014D" unicode="&#x014D;" d="M162 596L162 633L420 633L420 596L162 596M463 59Q463 59 429.50 24.50Q396-10 291-10Q186-10 119 58.50Q52 127 52 235Q52 342 119 410.50Q186 479 291 479Q396 479 463 410.50Q530 342 530 235Q530 128 463 59M291 30Q377 30 432.50 87Q488 144 488 235Q488 325 433 382Q378 439 291 439Q204 439 149 382Q94 325 94 235Q94 144 149 87Q204 30 291 30Z"  horiz-adv-x="582" vert-adv-y="1000"  />

      
      <glyph glyph-name="uni014E" unicode="&#x014E;" d="M488.50 788Q488.50 788 471.75 774.50Q455 761 409 761Q363 761 329.50 788Q296 815 286 862L318 870Q325 836 351 817Q377 798 411 798Q443 798 468 817.50Q493 837 500 870L532 862Q522 815 488.50 788M408-11Q260-11 163 91Q66 193 66 340Q66 491 162.50 591Q259 691 408 691Q558 691 654 591Q750 491 750 340Q750 192 653.50 90.50Q557-11 408-11M408 30Q538 30 622 119.50Q706 209 706 340Q706 474 622.50 562Q539 650 408 650Q277 650 193.50 562Q110 474 110 340Q110 209 194.50 119.50Q279 30 408 30Z"  horiz-adv-x="816" vert-adv-y="1000"  />

      
      <glyph glyph-name="uni014F" unicode="&#x014F;" d="M369 583.50Q369 583.50 352.50 570.25Q336 557 292 557Q248 557 215 583.50Q182 610 172 657L205 665Q212 632 237 613Q262 594 294 594Q324 594 348 613.50Q372 633 379 665L412 657Q402 610 369 583.50M463 59Q463 59 429.50 24.50Q396-10 291-10Q186-10 119 58.50Q52 127 52 235Q52 342 119 410.50Q186 479 291 479Q396 479 463 410.50Q530 342 530 235Q530 128 463 59M291 30Q377 30 432.50 87Q488 144 488 235Q488 325 433 382Q378 439 291 439Q204 439 149 382Q94 325 94 235Q94 144 149 87Q204 30 291 30Z"  horiz-adv-x="582" vert-adv-y="1000"  />

      
      <glyph glyph-name="uni0150" unicode="&#x0150;" d="M313 765L286 783L377 913L412 889L313 765M473 765L447 783L537 913L573 889L473 765M408-11Q260-11 163 91Q66 193 66 340Q66 491 162.50 591Q259 691 408 691Q558 691 654 591Q750 491 750 340Q750 192 653.50 90.50Q557-11 408-11M408 30Q538 30 622 119.50Q706 209 706 340Q706 474 622.50 562Q539 650 408 650Q277 650 193.50 562Q110 474 110 340Q110 209 194.50 119.50Q279 30 408 30Z"  horiz-adv-x="816" vert-adv-y="1000"  />

      
      <glyph glyph-name="uni0151" unicode="&#x0151;" d="M196 560L169 578L260 709L295 685L196 560M356 560L330 578L420 709L456 685L356 560M463 59Q463 59 429.50 24.50Q396-10 291-10Q186-10 119 58.50Q52 127 52 235Q52 342 119 410.50Q186 479 291 479Q396 479 463 410.50Q530 342 530 235Q530 128 463 59M291 30Q377 30 432.50 87Q488 144 488 235Q488 325 433 382Q378 439 291 439Q204 439 149 382Q94 325 94 235Q94 144 149 87Q204 30 291 30Z"  horiz-adv-x="582" vert-adv-y="1000"  />

      
      <glyph glyph-name="uni0152" unicode="&#x0152;" d="M537 41L854 41L854 0L495 0Q453-11 408-11Q259-11 162.50 90.50Q66 192 66 340Q66 489 162 590Q258 691 408 691Q453 691 495 680L845 680L845 639L537 639L537 371L804 371L804 330L537 330L537 41M494 43L494 637Q450 650 408 650Q277 650 193.50 561.50Q110 473 110 340Q110 208 194 119Q278 30 408 30Q450 30 494 43Z"  horiz-adv-x="901" vert-adv-y="1000"  />

      
      <glyph glyph-name="uni0153" unicode="&#x0153;" d="M691 478Q789 478 845.50 415.50Q902 353 902 249Q902 239 900 215L517 215Q522 128 570.50 79Q619 30 698 30Q785 30 853 92L877 62Q800-10 699-10Q623-10 569.50 28.50Q516 67 495 136Q472 67 417 29Q362-9 284-9Q181-9 116.50 59Q52 127 52 235Q52 342 116.50 409.50Q181 477 284 477Q362 477 417 439Q472 401 495 332Q516 400 568 439Q620 478 691 478M146.50 87Q146.50 87 172.75 59Q199 31 285 31Q371 31 423 87Q475 143 475 235Q475 327 423 382.50Q371 438 285 438Q199 438 146.50 382Q94 326 94 235Q94 143 146.50 87M692 438Q616 438 568.50 387.50Q521 337 516 253L860 253Q861 338 815.50 388Q770 438 692 438Z"  horiz-adv-x="946" vert-adv-y="1000"  />

      
      <glyph glyph-name="uni0154" unicode="&#x0154;" d="M386 879L248 775L227 798L359 911L386 879M390 288L593 2L593 0L543 0L341 286L154 286L154 0L110 0L110 680L364 680Q452 680 513.50 622.50Q575 565 575 482Q575 406 524 352Q473 298 390 288M154 327L363 327Q436 327 483.50 371.50Q531 416 531 482Q531 548 483 593.50Q435 639 364 639L154 639L154 327Z"  horiz-adv-x="635" vert-adv-y="1000"  />

      
      <glyph glyph-name="uni0155" unicode="&#x0155;" d="M282 675L144 570L123 594L255 707L282 675M267 477Q304 477 339 462L326 425Q293 437 262 437Q201 437 164.50 391Q128 345 128 269L128 0L86 0L86 469L119 469L126 384Q165 477 267 477Z"  horiz-adv-x="357" vert-adv-y="1000"  />

      
      </font>
</defs>
</svg>
